<svg height="512pt" viewBox="0 -1 512.00032 512" width="512pt" xmlns="http://www.w3.org/2000/svg"><path d="m385.445312 121.265625h-258.378906c-4.140625 0-7.496094 3.355469-7.496094 7.496094v124.71875c0 17.964843 14.617188 32.582031 32.582032 32.582031h208.207031c17.964844 0 32.582031-14.617188 32.582031-32.582031v-124.71875c0-4.140625-3.355468-7.496094-7.496094-7.496094zm0 0" fill="#ffd039"/><path d="m385.445312 121.265625h-258.378906c-4.140625 0-7.496094 3.355469-7.496094 7.496094v26.992187h273.371094v-26.992187c0-4.140625-3.355468-7.496094-7.496094-7.496094zm0 0" fill="#f4b70c"/><path d="m279.054688 75.71875h-45.597657c-4.140625 0-7.496093 3.355469-7.496093 7.496094v195.351562c0 4.140625 3.355468 7.496094 7.496093 7.496094h45.597657c4.140624 0 7.496093-3.355469 7.496093-7.496094v-195.351562c0-4.140625-3.355469-7.496094-7.496093-7.496094zm0 0" fill="#ff3d43"/><path d="m225.957031 121.265625h60.59375v34.488281h-60.59375zm0 0" fill="#d62d2d"/><g fill="#ff3d43"><path d="m246.699219 47.6875c-.40625-.515625-10.148438-12.792969-23.625-24.742188-19.144531-16.96875-35.980469-24.589843-50.035157-22.648437-12.054687 1.664063-21.257812 9.933594-27.34375 24.574219-8.140624 19.585937-8.71875 35.679687-1.710937 47.835937 8.855469 15.367188 26.378906 17.84375 27.117187 17.941407.328126.042968.65625.066406.980469.066406h68.734375c4.140625 0 7.496094-3.359375 7.496094-7.5v-30.878906c0-1.6875-.566406-3.324219-1.613281-4.648438zm0 0"/><path d="m366.816406 24.871094c-6.089844-14.640625-15.285156-22.910156-27.34375-24.574219-14.054687-1.941406-30.886718 5.679687-50.035156 22.648437-13.476562 11.949219-23.21875 24.226563-23.625 24.742188-1.046875 1.324219-1.613281 2.960938-1.613281 4.648438v30.878906c0 4.140625 3.355469 7.5 7.496093 7.5h68.734376c.324218 0 .652343-.023438.980468-.066406.738282-.097657 18.257813-2.570313 27.117188-17.9375 7.007812-12.160157 6.429687-28.253907-1.710938-47.839844zm0 0"/><path d="m366.816406 24.871094c-6.089844-14.640625-15.285156-22.910156-27.34375-24.574219-14.054687-1.941406-30.886718 5.679687-50.035156 22.648437-13.476562 11.949219-23.21875 24.226563-23.625 24.742188-1.046875 1.324219-1.613281 2.960938-1.613281 4.648438v30.878906c0 4.140625 3.355469 7.5 7.496093 7.5h68.734376c.324218 0 .652343-.023438.980468-.066406.738282-.097657 18.257813-2.570313 27.117188-17.9375 7.007812-12.160157 6.429687-28.253907-1.710938-47.839844zm0 0"/></g><path d="m240.816406 56.644531h-68.734375c-.324219 0-.652343-.019531-.980469-.0625-.738281-.097656-18.261718-2.574219-27.117187-17.941406-.703125-1.222656-1.308594-2.492187-1.859375-3.792969-4.527344 15.128906-3.917969 27.835938 1.859375 37.859375 8.855469 15.367188 26.378906 17.84375 27.117187 17.941407.328126.042968.65625.066406.980469.066406h68.734375c4.140625 0 7.496094-3.359375 7.496094-7.5v-30.878906c0-.527344-.074219-1.046876-.183594-1.558594-.746094 3.359375-3.734375 5.867187-7.3125 5.867187zm0 0" fill="#d62d2d"/><path d="m368.527344 38.640625c-8.855469 15.367187-26.375 17.84375-27.117188 17.941406-.324218.042969-.652344.0625-.980468.0625h-68.734376c-3.578124 0-6.566406-2.511719-7.3125-5.867187-.109374.511718-.183593 1.03125-.183593 1.558594v30.878906c0 4.140625 3.355469 7.5 7.496093 7.5h68.734376c.328124 0 .65625-.023438.980468-.066406.742188-.097657 18.261719-2.570313 27.117188-17.941407 5.777344-10.023437 6.386718-22.730469 1.859375-37.859375-.550781 1.300782-1.15625 2.570313-1.859375 3.792969zm0 0" fill="#d62d2d"/><path d="m271.695312 44.839844h-30.878906c-4.144531 0-7.5 3.355468-7.5 7.496094v30.878906c0 4.140625 3.355469 7.5 7.5 7.5h30.878906c4.140626 0 7.5-3.359375 7.5-7.5v-30.878906c0-4.140626-3.359374-7.496094-7.5-7.496094zm0 0" fill="#c61e1e"/><path d="m408.738281 75.71875h-304.964843c-4.140626 0-7.496094 3.355469-7.496094 7.496094v45.550781c0 4.140625 3.355468 7.496094 7.496094 7.496094h304.964843c4.140625 0 7.496094-3.355469 7.496094-7.496094v-45.550781c0-4.140625-3.355469-7.496094-7.496094-7.496094zm0 0" fill="#ffdf65"/><path d="m359.90625 306.609375c-7.828125-10.632813-22-13.90625-33.691406-7.78125l-99.535156 52.113281c-3.058594 1.601563-4.628907 5.082032-3.804688 8.433594s3.828125 5.707031 7.28125 5.707031h83.289062c1.246094 0 2.472657-.3125 3.566407-.902343l34.152343-18.484376c6.757813-3.65625 11.59375-10.054687 13.269532-17.550781 1.679687-7.5.027344-15.347656-4.527344-21.535156zm0 0" fill="#f4b184"/><path d="m364.433594 328.144531c1.5-6.695312.335937-13.667969-3.171875-19.492187l-102.589844 56.429687h54.773437c1.246094 0 2.472657-.3125 3.566407-.902343l34.152343-18.484376c6.753907-3.65625 11.59375-10.054687 13.269532-17.550781zm0 0" fill="#eaa678"/><path d="m412.707031 323.1875c-7.121093-11.761719-22.179687-15.84375-34.269531-9.300781l-68.5625 37.105469c-3.015625 1.632812-4.539062 5.105468-3.699219 8.433593.84375 3.328125 3.839844 5.65625 7.269531 5.65625h17.097657c7.140625 0 12.953125 5.8125 12.953125 12.953125 0 2.628906 1.371094 5.0625 3.621094 6.417969 1.1875.71875 2.53125 1.082031 3.875 1.082031 1.195312 0 2.398437-.289062 3.492187-.863281l48.195313-25.355469c6.253906-3.292968 10.929687-9.085937 12.816406-15.898437 1.890625-6.8125.875-14.1875-2.789063-20.230469zm0 0" fill="#f4b184"/><path d="m412.707031 323.1875c-.03125-.054688-.0625-.105469-.097656-.15625l-76.441406 43.355469c4.328125 2.097656 7.324219 6.523437 7.324219 11.648437 0 2.625 1.375 5.058594 3.625 6.417969 1.1875.71875 2.53125 1.078125 3.875 1.078125 1.195312 0 2.398437-.285156 3.492187-.863281l48.191406-25.355469c6.257813-3.292969 10.929688-9.085938 12.820313-15.898438 1.890625-6.808593.875-14.183593-2.789063-20.226562zm0 0" fill="#eaa678"/><path d="m467.484375 333.609375c-7.503906-10.492187-21.777344-13.875-33.199219-7.867187l-86.785156 45.65625c-2.464844 1.296874-4.007812 3.851562-4.007812 6.636718 0 6.511719-4.867188 12.035156-11.328126 12.851563l-127.234374 16.085937c-3.753907.476563-6.566407 3.675782-6.554688 7.460938s2.839844 6.96875 6.601562 7.421875l54.035157 6.5c10.058593 1.210937 20.105469 1.8125 30.101562 1.8125 42.015625 0 83.121094-10.621094 120.359375-31.285157l49.5-27.46875c6.464844-3.585937 11.105469-9.78125 12.726563-16.996093 1.625-7.210938.089843-14.796875-4.214844-20.808594zm0 0" fill="#f4b184"/><path d="m301.144531 402.367188-102.707031 12.984374c.425781 3.371094 3.089844 6.085938 6.539062 6.503907l54.035157 6.5c10.058593 1.210937 20.105469 1.8125 30.101562 1.8125 42.015625 0 83.121094-10.621094 120.359375-31.285157l49.5-27.46875c6.464844-3.585937 11.105469-9.78125 12.726563-16.996093 1.28125-5.679688.589843-11.589844-1.859375-16.78125l-124.914063 66.652343zm0 0" fill="#eaa678"/><path d="m506.199219 356.265625c-8.511719-11.265625-23.757813-14.667969-36.253907-8.089844-.046874.023438-.097656.050781-.144531.078125l-67.609375 37.519532c-41.351562 22.945312-87.792968 32.710937-134.707031 28.402343l66.5625-8.414062c13.933594-1.761719 24.441406-13.679688 24.441406-27.726563 0-15.410156-12.535156-27.949218-27.949219-27.949218h-98.863281c-7.949219-3.246094-44.511719-16.683594-87.730469-8.652344-41.6875 7.75-75.8125 32.910156-84.660156 39.890625h-51.789062c-4.140625 0-7.496094 3.359375-7.496094 7.5v99.222656c0 4.140625 3.355469 7.5 7.496094 7.5h54.109375l170.152343 15.160156c3.84375.34375 7.675782.507813 11.511719.507813 48.785157-.003906 96.800781-26.570313 139.519531-50.214844 5.191407-2.875 10.316407-5.710938 15.371094-8.460938l98.859375-53.777343c7.34375-3.996094 12.566407-10.972657 14.332031-19.144531 1.765626-8.167969-.113281-16.679688-5.152343-23.351563zm0 0" fill="#ffc89f"/><path d="m511.351562 379.617188c1.40625-6.507813.496094-13.230469-2.480468-19.066407l-119.082032 65.125c-49.550781 26.953125-105.964843 62.292969-162.152343 57.285157l-170.484375-15.195313h-57.152344v20.28125c0 4.140625 3.355469 7.5 7.496094 7.5h54.109375l170.152343 15.160156c3.84375.34375 7.675782.507813 11.511719.507813 48.785157-.003906 96.800781-26.570313 139.519531-50.214844 5.191407-2.875 10.316407-5.710938 15.371094-8.460938l98.859375-53.777343c7.34375-3.996094 12.566407-10.972657 14.332031-19.144531zm0 0" fill="#f7bc94"/><path d="m279.054688 75.71875h-45.597657c-4.140625 0-7.496093 3.355469-7.496093 7.496094v195.351562c0 4.140625 3.355468 7.496094 7.496093 7.496094h45.597657c4.140624 0 7.496093-3.355469 7.496093-7.496094v-195.351562c0-4.140625-3.355469-7.496094-7.496093-7.496094zm0 0" fill="#ff3d43"/><path d="m225.957031 136.257812h60.59375v19.496094h-60.59375zm0 0" fill="#d62d2d"/></svg>