<svg id="Layer_3" viewBox="0 0 1080 1080" xmlns="http://www.w3.org/2000/svg" xmlns:xlink="http://www.w3.org/1999/xlink" data-name="Layer 3"><linearGradient id="linear-gradient" gradientUnits="userSpaceOnUse" x1="534.51" x2="534.51" y1="921.77" y2="113.06"><stop offset="0" stop-color="#d8d4e3"/><stop offset=".32" stop-color="#a99acd"/><stop offset="1" stop-color="#6a53a4"/></linearGradient><path d="m998.91 891.12c-25.58 36.66-66 36.16-519.73 20.71-86.62-3-173.4-15.55-259.86-9.42-83.17 5.91-123.22 17.59-141.23-5.64-34.58-44.65 79.36-131.2 65.14-260.18-10.4-94.27-69.09-106-85.17-179.39-24.33-111 163.78-300.73 380.46-337.38 213.26-36.07 442.06 78.18 477.48 201.05 6.5 22.56-13 58.06 7.85 91.1 20.12 31.88 51 28.67 71.27 57.34 25.21 35.58 9.32 85.15 1.88 114.87-41.56 166.21 49.55 238.64 1.91 306.94z" fill="url(#linear-gradient)"/><g fill="#9d7dc5"><path d="m925.9 870.63h-154.27v-599.17c2.13-40 32-71.91 67.79-76.09 41.63-4.88 83.27 28.81 86.48 76.09z"/><path d="m752.66 255.27h192.2v22.46h-192.2z"/><rect height="87.37" rx="1.44" width="4.06" x="846.73" y="140.31"/><circle cx="848.76" cy="144.26" r="10.4"/><path d="m342 870.63h-154.25v-599.17c2.14-40 32.06-71.91 67.8-76.09 41.63-4.88 83.27 28.81 86.48 76.09z"/><path d="m168.79 255.27h192.2v22.46h-192.2z"/><rect height="87.37" rx="1.44" width="4.06" x="262.86" y="140.31"/><circle cx="264.89" cy="144.26" r="10.4"/><path d="m818.85 870.63h-525.54v-420.17c71.55-115.51 200.74-175.74 322-152.27 129.57 25.08 193.69 134.81 203.54 152.27z"/><path d="m553.16 210.34h5.83v168.48h-5.83z"/><path d="m540.76 166.85a39.16 39.16 0 0 1 .74-7.56 34.54 34.54 0 1 0 54 42.62 38.61 38.61 0 0 1 -54.78-35.06z"/><path d="m571.23 170.6 7.95-6.07a1.31 1.31 0 0 1 2 1.47l-3.32 9.44a1.3 1.3 0 0 0 .49 1.51l8.23 5.68a1.31 1.31 0 0 1 -.77 2.38l-10-.24a1.32 1.32 0 0 0 -1.29.94l-2.86 9.58a1.31 1.31 0 0 1 -2.51 0l-2.86-9.58a1.31 1.31 0 0 0 -1.28-.94l-10.01.23a1.31 1.31 0 0 1 -.78-2.38l8.23-5.68a1.3 1.3 0 0 0 .49-1.51l-3.27-9.43a1.3 1.3 0 0 1 2-1.47l7.95 6.07a1.31 1.31 0 0 0 1.61 0z"/></g><path d="m905.48 840.27h-79.35v-216.5c.63-21.13 16.84-38.11 36.2-39.77 21.67-1.85 42.25 16 43.15 39.77z" fill="#77599f"/><path d="m285.2 840.27h-79.35v-216.5c.64-21.13 16.84-38.11 36.2-39.77 21.67-1.85 42.25 16 43.15 39.77z" fill="#77599f"/><path d="m767.41 840.27h-406.41v-235c3.25-22.93 86.24-41.36 185.39-43.16 111-2 216.45 17.31 221 43.16z" fill="#77599f"/><path d="m1000.79 897.44c-1.61 32.48-318.36 40.71-461.35 40.75-147.59 0-459.76-8.52-461.35-40.75-1.36-27.68 226.28-72.93 451.91-74.11 236.52-1.24 472.18 45.93 470.79 74.11z" fill="#c1a0f6"/><path d="m139.77 353.37 1.61-6a.76.76 0 0 1 1.47 0l1.61 6a.74.74 0 0 0 .54.53l6 1.62a.75.75 0 0 1 0 1.46l-6 1.62a.74.74 0 0 0 -.54.53l-1.61 6a.76.76 0 0 1 -1.47 0l-1.61-6a.74.74 0 0 0 -.54-.53l-6-1.62a.75.75 0 0 1 0-1.46l6-1.62a.74.74 0 0 0 .54-.53z" fill="#f1e9ff"/><path d="m444.46 151.78 1.61-6a.76.76 0 0 1 1.47 0l1.61 6a.74.74 0 0 0 .54.54l6 1.61a.76.76 0 0 1 0 1.47l-6 1.61a.74.74 0 0 0 -.54.54l-1.61 6a.76.76 0 0 1 -1.47 0l-1.61-6a.74.74 0 0 0 -.54-.54l-6-1.61a.76.76 0 0 1 0-1.47l6-1.61a.74.74 0 0 0 .54-.54z" fill="#f1e9ff"/><path d="m708.64 299.72 1.62-6a.75.75 0 0 1 1.46 0l1.61 6a.76.76 0 0 0 .54.54l6 1.61a.76.76 0 0 1 0 1.47l-6 1.61a.76.76 0 0 0 -.54.54l-1.61 6a.75.75 0 0 1 -1.46 0l-1.62-6a.74.74 0 0 0 -.53-.54l-6-1.61a.76.76 0 0 1 0-1.47l6-1.61a.74.74 0 0 0 .53-.54z" fill="#f1e9ff"/><path d="m718.07 193.35 1.62-6a.75.75 0 0 1 1.46 0l1.61 6a.76.76 0 0 0 .54.53l6 1.61a.76.76 0 0 1 0 1.47l-6 1.61a.77.77 0 0 0 -.54.54l-1.61 6a.75.75 0 0 1 -1.46 0l-1.62-6a.76.76 0 0 0 -.53-.54l-6-1.61a.76.76 0 0 1 0-1.47l6-1.61a.75.75 0 0 0 .53-.53z" fill="#f1e9ff"/><path d="m414.7 262.21 2.4-8.92a1.13 1.13 0 0 1 2.19 0l2.4 8.92a1.13 1.13 0 0 0 .8.8l8.92 2.4a1.13 1.13 0 0 1 0 2.19l-8.92 2.4a1.12 1.12 0 0 0 -.8.8l-2.4 8.92a1.13 1.13 0 0 1 -2.19 0l-2.4-8.92a1.12 1.12 0 0 0 -.8-.8l-8.9-2.4a1.13 1.13 0 0 1 0-2.19l8.92-2.4a1.13 1.13 0 0 0 .78-.8z" fill="#f1e9ff"/><path d="m635.09 222.89 2.67-9.94a1.26 1.26 0 0 1 2.44 0l2.68 9.94a1.22 1.22 0 0 0 .89.89l9.94 2.68a1.26 1.26 0 0 1 0 2.43l-9.94 2.68a1.25 1.25 0 0 0 -.89.89l-2.68 9.95a1.27 1.27 0 0 1 -2.44 0l-2.67-9.95a1.29 1.29 0 0 0 -.89-.89l-10-2.68a1.26 1.26 0 0 1 0-2.43l10-2.68a1.25 1.25 0 0 0 .89-.89z" fill="#f1e9ff"/><path d="m973.71 562.8 2.68-9.95a1.26 1.26 0 0 1 2.43 0l2.68 9.95a1.29 1.29 0 0 0 .89.89l10 2.67a1.27 1.27 0 0 1 0 2.44l-10 2.68a1.25 1.25 0 0 0 -.89.89l-2.68 9.94a1.26 1.26 0 0 1 -2.43 0l-2.68-9.94a1.25 1.25 0 0 0 -.89-.89l-9.94-2.68a1.26 1.26 0 0 1 0-2.44l9.94-2.67a1.29 1.29 0 0 0 .89-.89z" fill="#f1e9ff"/><path d="m122.17 479.18 2.67-9.94a1.26 1.26 0 0 1 2.44 0l2.68 9.94a1.22 1.22 0 0 0 .89.89l9.94 2.68a1.26 1.26 0 0 1 0 2.44l-9.94 2.67a1.25 1.25 0 0 0 -.89.89l-2.68 9.95a1.27 1.27 0 0 1 -2.44 0l-2.67-9.95a1.29 1.29 0 0 0 -.89-.89l-10-2.67a1.27 1.27 0 0 1 0-2.44l10-2.68a1.25 1.25 0 0 0 .89-.89z" fill="#f1e9ff"/><path d="m934.43 485.64 1.61-6a.75.75 0 0 1 1.46 0l1.62 6a.75.75 0 0 0 .53.53l6 1.61a.76.76 0 0 1 0 1.47l-6 1.61a.76.76 0 0 0 -.53.54l-1.62 6a.75.75 0 0 1 -1.46 0l-1.61-6a.77.77 0 0 0 -.54-.54l-6-1.61a.76.76 0 0 1 0-1.47l6-1.61a.76.76 0 0 0 .54-.53z" fill="#f1e9ff"/><ellipse cx="324.64" cy="871.98" fill="#ac9dd1" rx="124.43" ry="19.46"/><ellipse cx="704.52" cy="871.14" fill="#ac9dd1" rx="133.23" ry="20.3"/><path d="m184.14 714.64a23.55 23.55 0 0 1 -47.08 1.07c-.19-8.41 5.87-14.5 7.91-16.67a44.89 44.89 0 0 1 5.6-4.83 55.93 55.93 0 0 1 10-6 46.1 46.1 0 0 1 9.11 5.52c.18.14 2.87 2.1 4.75 3.82 2.49 2.35 9.51 8.45 9.71 17.09z" fill="#554283"/><path d="m192.85 785.62-61.27 1.39 6.06-66.78 46.12-1.04z" fill="#d8ccf1"/><path d="m162.16 758.77c10.75-12.62 15.36-28.82 17.32-39.49l-41.84 1-5.47 60.3a82.47 82.47 0 0 0 29.99-21.81z" fill="#f1e9ff"/><path d="m143.52 719.78a.52.52 0 0 1 -.47-.54c1-12.65 5.61-20.51 9.33-24.88a25.29 25.29 0 0 1 8-6.56.49.49 0 0 1 .54.09c.15.13 14.7 13.41 14 30.7a.5.5 0 0 1 -.52.48.5.5 0 0 1 -.48-.52c.6-15.58-11.55-27.87-13.45-29.69-2.1 1.11-14.79 8.7-16.45 30.45a.5.5 0 0 1 -.5.47z" fill="#d8ccf1"/><rect fill="#705a8d" height="4.9" rx="2.45" transform="matrix(1 -.023 .023 1 -16.34 3.84)" width="48.86" x="136.31" y="718.89"/><path d="m140.9 787h-.12a1.5 1.5 0 0 1 -1.37-1.61l5-63.06a1.47 1.47 0 0 1 1.61-1.37 1.49 1.49 0 0 1 1.38 1.61l-5 63.03a1.5 1.5 0 0 1 -1.5 1.4z" fill="#705a8d"/><path d="m182.66 787.35a1.49 1.49 0 0 1 -1.48-1.31l-8.18-64.83a1.5 1.5 0 0 1 3-.37l8.13 64.83a1.5 1.5 0 0 1 -1.3 1.67z" fill="#705a8d"/><path d="m160.26 684.6a8.82 8.82 0 1 1 8.82-9 8.81 8.81 0 0 1 -8.61 9zm0-15.64h-.15a6.82 6.82 0 0 0 -4.56 11.74 6.62 6.62 0 0 0 4.87 1.88 6.81 6.81 0 0 0 6.66-7 6.84 6.84 0 0 0 -6.81-6.58z" fill="#d8ccf1"/><circle cx="160.47" cy="684.59" fill="#554283" r="5.1"/><path d="m161.93 669.3a1 1 0 0 1 -.33-.06 1 1 0 0 1 -.6-1.24c5.24-14.74 6.56-28.79 3.93-41.75-1.83-9-4.74-15.88-6.06-15.88s-2.45.64-4 17.32a113.83 113.83 0 0 0 3.75 40 1 1 0 1 1 -1.93.52 115.88 115.88 0 0 1 -3.81-40.7c1.73-18.84 4.71-19.05 5.83-19.13h.13c4.29 0 7.46 14.54 8.06 17.49 2.7 13.31 1.35 27.72-4 42.81a1 1 0 0 1 -.97.62z" fill="#d8ccf1"/><rect fill="#554283" height="5.5" rx="2.75" transform="matrix(1 -.023 .023 1 -17.82 3.89)" width="65.15" x="129.64" y="783.57"/><path d="m186.8 579.55c-9.62 10.46-18.91 15.65-26 18.45s-18.8 5.83-19.11 11.14c-.1 1.73 1 2.82 1.14 6.88.09 3.72-.84 4-.4 6.38.59 3.33 2.44 3.47 3.7 7.66.94 3.08.12 3.6 1 5.11 1.94 3.33 8.21 4.62 12.5 2.91 5.12-2 3.13-8.86 8.84-13.91 5.55-4.91 35.77-22.47 35.77-22.47s.58-20.58-17.44-22.15z" fill="#f5b5af"/><path d="m161.16 623.45s-8.65 12.78-5.6 15.1 4.83-2.72 8.8-6.67 7.65-12.29 7.77-14.72-8.62 2.52-10.97 6.29z" fill="#f5b5af"/><path d="m261.39 797.2s-8 35.22-9.55 38-25.29 9.09-28.53 18.24 10.81 14.14 20.37 15.43 46 4.59 50.44 1.93 15.43-68.84 15.43-68.84-32.85-23.96-48.16-4.76z" fill="#f5b5af"/><path d="m251.84 835.17c-1.49 2.75-25.29 9.09-28.53 18.24s10.81 14.14 20.37 15.43 46 4.59 50.44 1.93c1.63-1 4.13-10.47 6.65-22.11-9.08 1.06-25.06 1.84-30.55-4.86-4.07-5-11.63-7.93-18-9.64a6.7 6.7 0 0 1 -.38 1.01z" fill="#5a852f"/><path d="m395.18 806.5s.36 36.12 1.24 39.13 22.78 14.27 24 23.9-13.58 11.47-23.2 10.74-45.9-5.3-49.68-8.85-.43-70.55-.43-70.55 37.18-16.35 48.07 5.63z" fill="#f5b5af"/><path d="m396.42 845.63c.87 3 22.78 14.27 24 23.9s-13.58 11.47-23.2 10.74-45.9-5.3-49.68-8.85c-1.39-1.31-1.82-11.12-1.8-23 8.65 3 24.1 7.14 30.88 1.76 5-4 13.06-5.27 19.62-5.59a8.15 8.15 0 0 0 .18 1.04z" fill="#5a852f"/><path d="m296 568.45-56.39 254.71a128.4 128.4 0 0 0 71.35 8.3l47.29-239s-15.76-36.46-62.25-24.01z" fill="#4d7125"/><path d="m388.12 575.92s10.79 48.08 14.93 133.58 5.1 121.13 5.1 121.13-33.15 19.08-68.49 5l-4.66-244.78z" fill="#5a852f"/><path d="m484.72 485.18s16.75-8 22.52-12.14 10.37-12 15.44-14.52 0 8.3 0 8.3a64.73 64.73 0 0 0 6.83-1.45c3.93-1.06 6.61-2.13 9.08-4.55 1.6-1.57 4.22-4.88 5.88-5.07a2.09 2.09 0 0 1 1.27.23 2 2 0 0 1 .8 1.15c.66 2-.8 4.61-.8 4.61s2.53-3 4-5.07 4.73-.81 4.5 1.38-2.77 5.65-2.77 5.65a44.26 44.26 0 0 1 4.61-3.92c1.5-.92 4.73 1.85-2.65 11.18 0 0 3.69-3.22 5.53-2.42s-5.88 11.07-12.33 14.87-19.25 5.08-27.67 8.3-21.67 11.76-21.67 11.76-14.11 2.61-12.57-18.29z" fill="#f5b5af"/><path d="m378.53 386.22a10.1 10.1 0 0 1 7.77-2 7.77 7.77 0 0 1 4.37 2.23c3.7 4.36.72 16.42-6.8 18.75-4.2 1.3-8.26-.92-9.62-1.75q2.15-8.63 4.28-17.23z" fill="#e2a29f"/><path d="m381.47 401.27a.47.47 0 0 1 -.39-.19.49.49 0 0 1 .09-.7c1.78-1.37 2.69-2.86 2.71-4.44 0-2.75-2.69-4.94-2.72-5a.48.48 0 0 1 -.14-.59.48.48 0 0 1 .53-.29l6.88 1.1a.51.51 0 0 1 .41.58.49.49 0 0 1 -.57.41l-5.34-.86a7.27 7.27 0 0 1 1.95 4.62c0 1.9-1.06 3.66-3.1 5.23a.5.5 0 0 1 -.31.13z" fill="#d7615b"/><path d="m292.56 386.22a10.1 10.1 0 0 0 -7.77-2 7.77 7.77 0 0 0 -4.37 2.23c-3.71 4.36-.72 16.42 6.8 18.75 4.2 1.3 8.25-.92 9.61-1.75q-2.13-8.63-4.27-17.23z" fill="#e2a29f"/><path d="m289.61 401.27a.49.49 0 0 1 -.3-.1c-2-1.57-3.09-3.33-3.1-5.23a7.27 7.27 0 0 1 1.94-4.62l-5.33.86a.49.49 0 0 1 -.57-.41.5.5 0 0 1 .41-.58l6.87-1.1a.5.5 0 0 1 .39.88s-2.74 2.22-2.71 5c0 1.58.92 3.07 2.71 4.44a.5.5 0 0 1 -.31.89z" fill="#d7615b"/><path d="m540 466.84a.36.36 0 0 1 -.31-.16.37.37 0 0 1 .1-.52 34.17 34.17 0 0 0 5.69-4.66.37.37 0 0 1 .52-.05.37.37 0 0 1 0 .53 34 34 0 0 1 -5.84 4.8.42.42 0 0 1 -.16.06z" fill="#d7615b"/><path d="m544.66 470.07a.36.36 0 0 1 -.32-.18.38.38 0 0 1 .13-.52s4.92-2.95 6.71-5.86a.38.38 0 0 1 .52-.13.38.38 0 0 1 .12.52c-1.88 3.07-6.76 6-7 6.12a.45.45 0 0 1 -.16.05z" fill="#d7615b"/><path d="m548.73 475.53a.38.38 0 0 1 -.3-.15.39.39 0 0 1 .07-.53 36.55 36.55 0 0 0 4.66-4.11.36.36 0 0 1 .52-.07.37.37 0 0 1 .08.52 37.58 37.58 0 0 1 -4.8 4.26.4.4 0 0 1 -.23.08z" fill="#d7615b"/><path d="m542.85 479.37a.37.37 0 0 1 -.36-.29c-1.08-4.89-8.83-11.57-8.91-11.63a.38.38 0 0 1 .49-.57c.32.28 8 6.9 9.15 12a.37.37 0 0 1 -.29.45z" fill="#d7615b"/><path d="m520.91 472a.37.37 0 0 1 -.3-.59 11.43 11.43 0 0 0 1.7-4.64.38.38 0 0 1 .43-.32.39.39 0 0 1 .31.43 12 12 0 0 1 -1.83 5 .39.39 0 0 1 -.31.12z" fill="#d7615b"/><path d="m157 639.67h-.19a2.55 2.55 0 0 1 -1.55-.88c-2.78-3.83 3-11.38 3.2-11.7a.38.38 0 0 1 .6.46c-.06.08-5.65 7.42-3.2 10.79a1.78 1.78 0 0 0 1 .59 1.34 1.34 0 0 0 1-.37 35 35 0 0 0 3.17-3.51c.79-.94 1.54-1.84 2.19-2.53a.37.37 0 1 1 .54.52c-.63.67-1.37 1.56-2.16 2.5a35 35 0 0 1 -3.26 3.59 2.07 2.07 0 0 1 -1.34.54z" fill="#d7615b"/><rect fill="#e2a29f" height="71.9" rx="14.66" width="29.31" x="322.16" y="406.67"/><circle cx="335.92" cy="376.77" fill="#f5b5af" r="48.09"/><path d="m319.53 439.72-1 7.46s-31 17-34.85 31.39 7.33 35.12 8.16 63.33-6.64 73-6.64 73 45.22 10 69.28 7.89a137.57 137.57 0 0 0 41.9-10.38s-7.61-68-6.5-94.16 6.08-44.39 3.18-54.35-38.79-14.72-38.79-14.72l-1-9.47s-15.07 2.21-16.45 7.6c0 .01-1.82-7.94-17.29-7.59z" fill="#e3da5f"/><path d="m371.22 455.62s17 .38 28.18 9.65 49.81 54.82 49.81 54.82l-21.21 24.71-46.33-38.61s-23.96-20.07-10.45-50.57z" fill="#e3da5f"/><path d="m503.26 475.44a422 422 0 0 0 -42 18.79c-29.81 15.35-35.18 22.63-37.06 29.85-1.57 6-1.75 16.08 3.35 20.08 7.16 5.62 27.26 1.23 86.63-48.16a48.59 48.59 0 0 0 -11-20.56z" fill="#e3da5f"/><path d="m288.43 515.66s-3.19 87.34-20.89 148.76c0 0 24.34 9.4 67.48 11.06l4.64-30.42 2.17 30.42s45.05 0 62.47-5.6l-12.92-111.82z" fill="#e3da5f"/><path d="m309.72 454a89.07 89.07 0 0 0 -15.72 8.25 94.29 94.29 0 0 0 -25.77 25.75c-8.66 12.43-33.23 40-98.4 103.82a53.32 53.32 0 0 0 18.95 20.39 382 382 0 0 0 51.05-33.58 382.57 382.57 0 0 0 62.89-62 62.34 62.34 0 0 0 10.06-20.52c5.38-19.51-.54-36.11-3.06-42.11z" fill="#e3da5f"/><path d="m287.83 370.76c-.06 7.14.63 30.94 18.29 48.84 4.87 4.94 14.68 14.89 29 15.28 19.59.52 32.71-17.3 36.75-22.8 11.25-15.27 12.19-31.68 12.15-38.69-8.63-4.06-21-7.7-35.92-10.48-20.01-3.71-44.05-4.36-60.27 7.85z" fill="#f5b5af"/><path d="m287.38 534.56 7.82-28.75a170.07 170.07 0 0 1 -11.89 73.57q2.03-22.38 4.07-44.82z" fill="#d2c654"/><path d="m390.18 513.3 1.47-22.01 25.56 44.54z" fill="#d2c654"/><path d="m216.38 547.6a1 1 0 0 1 -.52-1.85 48.68 48.68 0 0 1 26.51-6.92 1 1 0 1 1 -.06 2 46.69 46.69 0 0 0 -25.42 6.63.94.94 0 0 1 -.51.14z" fill="#8d8230"/><path d="m449.21 524.1a1 1 0 0 1 -1-.76c-1.87-7.36-10.41-15-10.5-15.09a1 1 0 0 1 1.33-1.5c.37.33 9.09 8.15 11.11 16.1a1 1 0 0 1 -.73 1.22z" fill="#8d8230"/><path d="m322.16 652.42a1 1 0 0 1 -.64-.23c-22-18.26-32.65-65.59-33.09-67.6a1 1 0 0 1 1.95-.43c.11.49 10.95 48.67 32.42 66.49a1 1 0 0 1 -.64 1.77z" fill="#8d8230"/><path d="m358.25 652.42a1 1 0 0 1 -.42-1.91c13.52-6.36 25.1-48.71 25.22-49.13a1 1 0 0 1 1.22-.71 1 1 0 0 1 .71 1.23c-.48 1.78-11.94 43.67-26.3 50.42a.94.94 0 0 1 -.43.1z" fill="#8d8230"/><path d="m336.82 447.32h3.3v199.74h-3.3z" fill="#5a852f"/><path d="m351.48 500.21h30.17v5.98h-30.17z" fill="#5a852f"/><ellipse cx="308.94" cy="403.48" fill="#fa8b85" rx="7.02" ry="4.81" transform="matrix(1 -.01 .01 1 -4.14 3.2)"/><ellipse cx="364.28" cy="403.45" fill="#fa8b85" rx="6.97" ry="4.78" transform="matrix(1 -.01 .01 1 -4.13 3.77)"/><path d="m337.48 398.74c-1.78 0-3.53-.18-4.21-.83-.43-.41-1.43-1.37 2.15-11.19a1 1 0 0 1 1.87.69c-1.3 3.58-2.56 7.92-2.51 9.11a21.58 21.58 0 0 0 5.67.08 1 1 0 0 1 1.08.9 1 1 0 0 1 -.91 1.09c-.88.08-2.02.15-3.14.15z" fill="#f4925b"/><path d="m366 378.22a13.65 13.65 0 0 0 -7.35-3.77c-1.88-.35-4.43-.82-5.45.53a2.09 2.09 0 0 0 -.28 2.09c.69 1.33 3.09.62 6.69 1.16 4.74.71 7.54 3 8 2.37.29-.46-1.05-1.83-1.61-2.38z" fill="#382955"/><path d="m306.77 377.43a13.75 13.75 0 0 1 7.4-3.69c1.89-.32 4.44-.76 5.45.61a2.09 2.09 0 0 1 .25 2.09c-.71 1.32-3.1.58-6.71 1.07-4.75.66-7.57 2.91-8 2.27-.28-.46 1.08-1.78 1.61-2.35z" fill="#382955"/><path d="m335.75 421.44a15.75 15.75 0 0 1 -4.54-.71.37.37 0 0 1 -.23-.47.36.36 0 0 1 .47-.24c.06 0 5.59 1.82 8.84-.62a.38.38 0 0 1 .45.6 8.24 8.24 0 0 1 -4.99 1.44z" fill="#f4925b"/><path d="m321.33 408.33c4.16.4 8.69.66 13.55.69 5.56 0 10.69-.25 15.35-.69a15.18 15.18 0 0 1 -28.9 0z" fill="#fff"/><path d="m308.35 391-1.83-.78a9.81 9.81 0 0 1 8.78-6.1 9.94 9.94 0 0 1 7.64 3.69l-1.56 1.19a8.13 8.13 0 0 0 -6.05-2.94 7.83 7.83 0 0 0 -6.98 4.94z" fill="#020202"/><path d="m365.28 391a7.82 7.82 0 0 0 -7-4.88 8.05 8.05 0 0 0 -6.05 2.94l-1.56-1.25a10 10 0 0 1 7.64-3.69 9.82 9.82 0 0 1 8.78 6.1z" fill="#020202"/><path d="m283.24 384.54c1.43.85 3.89.95 5.32 3.18.77 1.2.59 2 1.05 4 .87 3.76 2.94 7.18 3.49 6.94 1.37-.61-.45-14.06 0-18s4.17-4.33 5.42-12.21a153.92 153.92 0 0 1 3.4-15.55s-1 9.33 1.1 10.37 28.61-4.08 45.07-.41 17.15 3.52 18.11 2.48 1.44-8.09 1.44-8.09 1.4 9.54 1.61 12.65 1.3 7.06 5 8.72 4.54 6.84 4.12 11.92-1.1 8.13 1.32 7.13 3-13.67 4.32-13.66c1.6 0 2.54.9 3.61.45 3.66-1.52 3.12-24.64-9.87-41.52-14.41-18.72-37.09-20.59-39.41-20.74-4.55-.3-21.53-.86-36.92 11.2-14.31 11.2-17.9 26-19.5 32.56-.29 1.25-3.67 15.63 1.32 18.58z" fill="#382955"/><path d="m283.79 381.34a.5.5 0 0 1 -.49-.39c-1.67-8 5.12-27.75 5.41-28.58a.51.51 0 0 1 .64-.31.49.49 0 0 1 .3.64c-.07.2-7 20.28-5.37 28a.49.49 0 0 1 -.39.59z" fill="#523f80"/><path d="m291.88 390a.49.49 0 0 1 -.48-.37c-4.42-16.86 4.18-38.37 4.27-38.58a.5.5 0 0 1 .65-.28.49.49 0 0 1 .27.65c-.08.21-8.56 21.42-4.23 37.95a.52.52 0 0 1 -.35.62z" fill="#523f80"/><path d="m375.47 376.05a.49.49 0 0 1 -.47-.52c.4-7.7-4.15-21.46-4.2-21.6a.51.51 0 0 1 .32-.63.5.5 0 0 1 .63.32c.19.57 4.66 14.07 4.25 22a.5.5 0 0 1 -.53.43z" fill="#523f80"/><path d="m381.47 387.57h-.1a.52.52 0 0 1 -.39-.6c1.81-8.6-4.75-35.39-4.82-35.66a.49.49 0 0 1 .36-.6.5.5 0 0 1 .61.36c.27 1.11 6.69 27.28 4.83 36.11a.51.51 0 0 1 -.49.39z" fill="#523f80"/><path d="m386.46 377.89a.5.5 0 0 1 -.5-.5c0-5.52-2.41-17.79-2.44-17.92a.5.5 0 0 1 .4-.58.48.48 0 0 1 .58.39c.1.51 2.46 12.49 2.46 18.11a.5.5 0 0 1 -.5.5z" fill="#523f80"/><path d="m310.34 359.88a.51.51 0 0 1 -.5-.44c-1.66-12.9 7.57-26.73 8-27.31a.49.49 0 0 1 .69-.13.5.5 0 0 1 .14.69c-.1.14-9.42 14.1-7.8 26.62a.5.5 0 0 1 -.44.56z" fill="#523f80"/><path d="m323.2 359.88a.5.5 0 0 1 -.5-.5c0-2.53 1.59-22.83 1.66-23.69a.5.5 0 0 1 1 .08c0 .21-1.69 21.12-1.66 23.6a.51.51 0 0 1 -.49.51z" fill="#523f80"/><path d="m357.31 362.36h-.1a.5.5 0 0 1 -.39-.59c2.12-10.32-2.52-24.28-2.57-24.42a.5.5 0 0 1 .32-.63.5.5 0 0 1 .63.31c.2.58 4.77 14.36 2.6 25a.5.5 0 0 1 -.49.33z" fill="#523f80"/><path d="m340.53 358.84h-.09a.5.5 0 0 1 -.4-.58c1.34-7.11 0-20.88 0-21a.5.5 0 1 1 1-.1c.06.57 1.38 14.05 0 21.3a.51.51 0 0 1 -.51.38z" fill="#523f80"/><path d="m751.32 789.09s5.43 69.78 10.45 74.55 29 23.37 44.74 24.58c5.14.39 7.52-1 8.94-2.57 8-9-12.81-38.65-16.36-43.64q-4.71-32.34-9.4-64.68z" fill="#f5b5af"/><path d="m652 804.57-2.66 43.06c-1.27 1.39-3.27 3.53-5.8 6-10.88 10.82-15.6 12.8-17.18 19.11-.25 1-1.86 6.92 1.29 10.07 2.65 2.65 8.59 1.67 18.55.34 16.21-2.18 38-8.47 40.4-14.52s3.66-70.63 3.66-70.63z" fill="#f5b5af"/><path d="m626.39 872.79c-.25 1-1.86 6.92 1.29 10.07 2.65 2.65 8.59 1.67 18.55.34 16.21-2.18 38-8.47 40.4-14.52.68-1.69 1.26-8 1.75-16.16-2.41 3.06-6.62 8.07-9.74 9.87-4.59 2.66-26.61 8.23-30.72 7.26-3-.71-9-6-12-8.75-5.59 5.01-8.39 7.33-9.53 11.89z" fill="#5a852f"/><path d="m806.51 888.22c5.14.39 7.52-1 8.94-2.57 4.57-5.14-.24-17-5.88-27.14-5.38 4.16-17.09 12.37-23.4 10.32s-21-12.73-28-18c1.17 6.76 2.39 11.65 3.6 12.79 5.01 4.78 29.03 23.38 44.74 24.6z" fill="#5a852f"/><path d="m586.36 468.23s-4.63-12.7-5.82-15-6-3.77-8.61-10.2-13.16-18.89-11.44-21.48 12 9.11 12 9.11-9-20.79-6-22.94 9.79 13.73 9.79 13.73-5.69-19.89-2.31-20.4 9.1 17.4 9.1 17.4-2-14.8 1.21-15.9 5.91 14.54 6.65 17.55 4.37 8.9 4.37 8.9.92-10.3 4.11-10.57 1 10.73 2 14.36-1 8.72-.78 15.3 5 15.91 5 15.91-11.63 18-19.27 4.23z" fill="#f5b5af"/><path d="m573.22 434.84a.36.36 0 0 1 -.2-.06.35.35 0 0 1 -.11-.51c.05-.09 5.74-8.81 14.58-12a.38.38 0 0 1 .48.23.38.38 0 0 1 -.23.48c-8.59 3.06-14.15 11.57-14.2 11.65a.4.4 0 0 1 -.32.21z" fill="#d7615b"/><path d="m593.37 437.86a.39.39 0 0 1 -.37-.31 12.89 12.89 0 0 1 2-8.8.38.38 0 0 1 .52-.11.38.38 0 0 1 .1.53 12.4 12.4 0 0 0 -1.87 8.25.37.37 0 0 1 -.3.43z" fill="#d7615b"/><path d="m863.74 711.58a23.55 23.55 0 0 0 47.09 1.07c.19-8.41-5.87-14.5-7.92-16.66a42.7 42.7 0 0 0 -5.6-4.83 55.38 55.38 0 0 0 -10-6 46.89 46.89 0 0 0 -9.11 5.52c-.18.15-2.87 2.1-4.75 3.82-2.45 2.34-9.51 8.41-9.71 17.08z" fill="#554283"/><path d="m855.04 782.57 61.26 1.39-6.06-66.78-46.12-1.05z" fill="#d8ccf1"/><path d="m885.73 755.71c-10.76-12.62-15.37-28.82-17.33-39.48l41.84.95 5.47 60.29a82.41 82.41 0 0 1 -29.98-21.76z" fill="#f1e9ff"/><path d="m904.36 716.72a.5.5 0 0 1 -.5-.46c-.94-12.34-5.44-20-9.05-24.26a26.39 26.39 0 0 0 -7.39-6.2c-1.9 1.82-14.06 14.11-13.45 29.7a.5.5 0 0 1 -.48.52.47.47 0 0 1 -.52-.48c-.68-17.3 13.88-30.58 14-30.71a.49.49 0 0 1 .53-.08c.16.07 15.48 7.2 17.33 31.43a.5.5 0 0 1 -.46.54z" fill="#d8ccf1"/><rect fill="#705a8d" height="4.9" rx="2.45" transform="matrix(-1 -.023 .023 -1 1757.75 1456.53)" width="48.86" x="862.72" y="715.83"/><path d="m907 783.93a1.5 1.5 0 0 1 -1.49-1.39l-5-63a1.5 1.5 0 1 1 3-.23l5 63a1.49 1.49 0 0 1 -1.38 1.61z" fill="#705a8d"/><path d="m865.22 784.3h-.22a1.51 1.51 0 0 1 -1.3-1.68l8.14-64.83a1.5 1.5 0 0 1 3 .37l-8.13 64.84a1.51 1.51 0 0 1 -1.49 1.3z" fill="#705a8d"/><path d="m887.62 681.54h-.21a8.82 8.82 0 0 1 -5.89-15.19 8.82 8.82 0 0 1 12.19 12.75 8.77 8.77 0 0 1 -6.09 2.44zm0-15.63a6.81 6.81 0 0 0 -6.81 6.66 6.83 6.83 0 0 0 6.66 7 6.82 6.82 0 0 0 .31-13.63z" fill="#d8ccf1"/><circle cx="887.41" cy="681.54" fill="#554283" r="5.1"/><path d="m886 666.25a1 1 0 0 1 -.94-.67c-5.36-15.09-6.71-29.49-4-42.81.59-2.94 3.76-17.48 8-17.48h.13c1.13.08 4.11.29 5.83 19.13a115.69 115.69 0 0 1 -3.8 40.71 1 1 0 0 1 -1.94-.52 113.83 113.83 0 0 0 3.75-40c-1.53-16.69-3.95-17.32-4-17.32-1.32 0-4.24 6.88-6.06 15.88-2.63 13-1.31 27 3.92 41.74a1 1 0 0 1 -.6 1.28 1.06 1.06 0 0 1 -.29.06z" fill="#d8ccf1"/><rect fill="#554283" height="5.5" rx="2.75" transform="matrix(-1 -.023 .023 -1 1753.32 1586.44)" width="65.15" x="853.1" y="780.51"/><path d="m860.3 581.27c9.19 10 18.06 14.94 24.87 17.62s18 5.57 18.24 10.64c.1 1.65-1 2.69-1.08 6.57-.09 3.55.8 3.77.38 6.09-.57 3.18-2.33 3.32-3.54 7.32-.89 2.94-.11 3.44-.95 4.88-1.86 3.18-7.85 4.41-11.94 2.78-4.89-1.95-3-8.47-8.44-13.29-5.3-4.69-34.16-21.46-34.16-21.46s-.58-19.65 16.62-21.15z" fill="#f5b5af"/><path d="m886.72 625.16s8.66 12.79 5.61 15.11-4.84-2.72-8.81-6.67-7.64-12.29-7.77-14.73 8.63 2.53 10.97 6.29z" fill="#f5b5af"/><path d="m751.86 570.17c-33.13-8.88-50.65 7.14-58 17.06l-34.12-9.59s-10.74 48.12-14.91 133.57-5.09 121.13-5.09 121.13a150.46 150.46 0 0 0 21 7.78c45.63 13.13 88.49 1.85 123.48-7.78 9.85-2.71 18-5.38 24.06-7.46z" fill="#5a852f"/><path d="m888.76 638.71a2 2 0 0 1 -1.31-.53 33 33 0 0 1 -3.12-3.44c-.75-.89-1.46-1.74-2.06-2.39a.37.37 0 0 1 0-.53.38.38 0 0 1 .53 0c.62.66 1.34 1.52 2.1 2.42a32.51 32.51 0 0 0 3 3.34 1.17 1.17 0 0 0 .93.35 1.6 1.6 0 0 0 1-.57c2.32-3.2-3-10.2-3.06-10.27a.37.37 0 1 1 .59-.45c.24.3 5.73 7.51 3.07 11.18a2.47 2.47 0 0 1 -1.51.86z" fill="#d7615b"/><path d="m728.35 441.43 1 7.47s31 17 34.84 31.39-7.32 35.12-8.15 63.33 6.63 73 6.63 73-45.21 10-69.27 7.88a137.4 137.4 0 0 1 -41.9-10.37s7.6-68 6.5-94.17-6.09-44.38-3.18-54.34 38.78-14.73 38.78-14.73l1-9.47s15.07 2.21 16.46 7.61c.01-.03 1.87-7.94 17.29-7.6z" fill="#e3da5f"/><path d="m676.67 457.33s-17 .39-28.19 9.66-49.8 54.82-49.8 54.82l21.23 24.71 46.33-38.61s23.94-20.08 10.43-50.58z" fill="#d2c654"/><path d="m602.53 448.88a375.2 375.2 0 0 1 17.47 42.5c12.94 37.86 9 46.46 5.77 50.5-2.51 3.11-7.48 7-12.44 6.64-9.83-.77-22.06-18.62-32.94-92.26a48.63 48.63 0 0 1 22.1-7.38z" fill="#e3da5f"/><path d="m759.45 517.37s3.19 87.37 20.89 148.76c-4 1.29-10.07 3.13-17.56 4.91-35.46 8.44-64.73 6.62-81.43 5.46a326 326 0 0 1 -37.76-4.9l12.91-111.83z" fill="#e3da5f"/><path d="m738.17 455.67a89.26 89.26 0 0 1 15.76 8.3 94 94 0 0 1 25.72 25.72c8.66 12.43 33.23 40 98.4 103.82a51.56 51.56 0 0 1 -4.36 6.93 54.31 54.31 0 0 1 -14.58 13.46 381.8 381.8 0 0 1 -114-95.54 62.15 62.15 0 0 1 -10-20.52c-5.39-19.52.53-36.1 3.06-42.17z" fill="#e3da5f"/><path d="m814.28 529.34c-19.67-20.66-29.71-32.6-34.63-39.65a94 94 0 0 0 -25.72-25.69 89.6 89.6 0 0 0 -9.87-5.66 162 162 0 0 0 -14.74-9.41l-.92-7.09-1.86-.38c-13.75.3-15.47 7.61-15.47 7.61-1.39-5.4-16.46-7.61-16.46-7.61l-1 9.47s-35.88 4.77-38.78 14.73 2.03 28.18 3.17 54.34c.22 5.21.09 12.09-.25 19.76 9.93 13.34 30.9 37.46 56.87 44.51 19.08 5.18 35.56-2.29 49.13-11.15-1.53-14.35-2.56-27.13-3.21-36.81 6.78 7.44 14.35 15.15 22.75 22.94 3.8-2.59 7.19-4.53 10.15-5.26 9.89-2.47 17.03-15.64 20.84-24.65z" fill="#d2c654"/><path d="m713.55 330.11c-21.39-.43-41.41 14.89-49.57 32.56-13.46 29.13 9 52.87-3.32 78-6.52 13.33-22.74 33.58-24.75 36.09-6.84 8.54-10.26 12.81-12.17 14.38-1.5 1.24-2.39 1.82-2.73 3-1.77 6.23 14.69 15.88 20.57 19.5 32.18 19.87 31.75 35 51.85 45.64 44.16 23.34 118.8-11.37 118.64-33.4 0-2.75-1.19-4.13-7.88-12.24-31.41-38.1-39.81-49.35-42.73-64.3-.63-3.24-.69-7.69-.83-16.59-.56-37.15 7.28-44.84 4.15-59.94-4.28-20.69-26.47-42.2-51.23-42.7z" fill="#5a852f"/><circle cx="710.97" cy="384.79" fill="#f5b5af" r="45.07"/><path d="m756 379.16c.42 2.72 4.29 30.32-15 47.81-2.85 2.58-13 11.48-27.93 11.62-19.13.17-31.29-14.12-34.57-18-13.43-15.78-12.87-34.37-12.59-39 8.09-3.8 19.64-7.21 33.66-9.81 18.74-3.45 41.27-4.06 56.43 7.38z" fill="#f5b5af"/><ellipse cx="736.26" cy="409.82" fill="#fa8b85" rx="4.51" ry="6.58" transform="matrix(.01 -1 1 .01 318.88 1141.83)"/><ellipse cx="684.4" cy="409.79" fill="#fa8b85" rx="4.48" ry="6.53" transform="matrix(.01 -1 1 .01 267.59 1089.94)"/><path d="m709.69 404.42c-1 0-2.1-.06-3.08-.14a1 1 0 1 1 .17-2 23.16 23.16 0 0 0 5.23 0 36.72 36.72 0 0 0 -2.37-7.43 1 1 0 0 1 1.85-.76c3.45 8.43 2.48 9.26 2 9.66s-2.12.67-3.8.67z" fill="#f4925b"/><path d="m678.94 387.08a12.81 12.81 0 0 1 6.89-3.55c1.76-.32 4.15-.76 5.11.51a2 2 0 0 1 .26 2c-.65 1.24-2.9.57-6.27 1.08-4.44.67-7.06 2.81-7.45 2.22-.29-.47.97-1.76 1.46-2.26z" fill="#382955"/><path d="m741.72 385.52a12.76 12.76 0 0 0 -6.94-3.46c-1.76-.3-4.15-.71-5.1.57a2 2 0 0 0 -.24 2c.67 1.23 2.91.53 6.29 1 4.45.61 7.09 2.72 7.48 2.12.28-.46-.99-1.75-1.49-2.23z" fill="#382955"/><path d="m711.13 426.67a7.77 7.77 0 0 1 -4.68-1.34.38.38 0 1 1 .45-.6c3 2.27 8.2.59 8.26.57a.37.37 0 0 1 .47.24.38.38 0 0 1 -.24.47 15 15 0 0 1 -4.26.66z" fill="#f4925b"/><path d="m724.64 414.36c-3.89.38-8.14.63-12.69.65a141.73 141.73 0 0 1 -14.39-.65 14.22 14.22 0 0 0 27.08 0z" fill="#fff"/><path d="m695.64 393.54a4.69 4.69 0 1 0 1.16 6.52 4.68 4.68 0 0 0 -1.16-6.52z" fill="#020202" fill-rule="evenodd"/><path d="m733.29 394a4.69 4.69 0 1 0 -.95 6.55 4.69 4.69 0 0 0 .95-6.55z" fill="#020202" fill-rule="evenodd"/><path d="m690.23 393.65c-.94.57-1.68 1.3-2.44 1.74a3.05 3.05 0 0 1 -2.38.38 5.77 5.77 0 0 1 -2.41-1.55 3.88 3.88 0 0 0 2 2.61 3.7 3.7 0 0 0 3.55-.18 14.86 14.86 0 0 0 2.39-2.1 6.13 6.13 0 0 1 2.46-1.55 4 4 0 0 0 -3.17.65z" fill="#020202"/><path d="m737 394.91a3.07 3.07 0 0 1 -2.39-.3c-.77-.41-1.54-1.12-2.5-1.66a4 4 0 0 0 -3.19-.55 6.28 6.28 0 0 1 2.54 1.47 14.26 14.26 0 0 0 2.45 2 3.67 3.67 0 0 0 3.55.07 3.82 3.82 0 0 0 1.9-2.67 5.8 5.8 0 0 1 -2.36 1.64z" fill="#020202"/><path d="m678.15 371.79s33.49-21 65.87 3v-16.4l-37.35-13.55-25.87 12.72z" fill="#e3da5f"/><path d="m665.91 409.79c.08-5.84 1.1-28.78 19-45.6 4.12-3.88 13.5-12.71 25.16-13 18.67-.46 38.79 21.06 46 54 0 0 6.7-19.43 0-39.22s-31.52-34.38-49.35-31.94-37.64 25.33-40.81 31.97-3.26 35.32 0 43.79z" fill="#5a852f"/><path d="m706.69 650.9a1.09 1.09 0 0 1 -.39-.08c-8.45-3.63-18-13.27-28.3-28.67a230 230 0 0 1 -13-22 1 1 0 0 1 1.79-.9c.21.42 20.93 41.43 40.29 49.74a1 1 0 0 1 -.4 1.92z" fill="#8d8230"/><path d="m724.84 627.63a1 1 0 0 1 -.34-1.94c20.71-7.5 29.8-39.69 29.89-40a1 1 0 0 1 1.23-.7 1 1 0 0 1 .7 1.23 94.6 94.6 0 0 1 -7.3 17.64c-4.6 8.55-12.47 19.6-23.84 23.72a1.06 1.06 0 0 1 -.34.05z" fill="#8d8230"/><path d="m680.8 722.74s8.89 75.92 59.29 96.67c0 0-71.19-13.21-59.29-96.67z" fill="#4d7125"/><path d="m751.32 681.22s.22 52.45-27.31 67.39c-.01 0 40.12-9.78 27.31-67.39z" fill="#4d7125"/><path d="m812.07 525.91c0-2.75-1.19-4.13-7.88-12.24-31.41-38.1-39.81-49.35-42.73-64.3-.63-3.24-.69-7.69-.83-16.59-.56-37.15 7.28-44.84 4.15-59.94s-15.54-30.36-31.55-37.93c10.31 8.66 26.41 24.48 27.82 39.88 2.09 22.8-6.22 56.55-12.45 67s-5.51 11.45 8 24 32.21 37.82 39.68 51.54c4.49 8.25 4.79 18.67 4.33 25.67 7.19-5.74 11.5-11.78 11.46-17.09z" fill="#4d7125"/><path d="m665.81 395.44a1 1 0 0 1 -.88-.53c-5.91-11.21-.22-28.51 0-29.24a1 1 0 0 1 1.26-.63 1 1 0 0 1 .64 1.27c-.06.17-5.66 17.22-.16 27.67a1 1 0 0 1 -.42 1.35 1.12 1.12 0 0 1 -.44.11z" fill="#375019"/><path d="m756 398.38a.78.78 0 0 1 -.26 0 1 1 0 0 1 -.71-1.22c3.13-12-1.48-28.62-1.53-28.78a1 1 0 1 1 1.92-.55c.2.71 4.81 17.32 1.55 29.84a1 1 0 0 1 -.97.71z" fill="#375019"/><path d="m727.47 458.68a1.15 1.15 0 0 1 -.36-.07 43.55 43.55 0 0 1 -21.25-17.38 1 1 0 1 1 1.69-1.07 41.55 41.55 0 0 0 20.28 16.58 1 1 0 0 1 -.36 1.94z" fill="#375019"/><path d="m683 530.85a1 1 0 0 1 -.69-.27c-13.57-12.66-16.85-34.76-17.21-51.06a172.68 172.68 0 0 1 2.46-32.52 1 1 0 1 1 2 .38c-.11.58-10.92 58.35 14.16 81.75a1 1 0 0 1 .05 1.41 1 1 0 0 1 -.77.31z" fill="#375019"/><path d="m736.26 540a1 1 0 0 1 -.38-1.93c32.15-13.22 19-81.49 18.88-82.18a1 1 0 1 1 2-.39 179.87 179.87 0 0 1 2.76 36.75c-.94 25.43-8.84 41.92-22.84 47.67a1 1 0 0 1 -.42.08z" fill="#375019"/><path d="m980.53 915.13s70.78-29.35 57.91-74.85-52.85 4.21-52.85 4.21 33.12-32.75-6.35-50.44-62.1 57.67-62.1 57.67-32-43.87-66.85-21.22-8.63 53.81-8.63 53.81-47.44-27.17-64.35-9.37-7.46 46.83-7.46 46.83-108.14-29.71-147.44-12c-5.75 2.59-8 5.24-8.21 7.92-1.45 17.51 89.88 45.18 161.25 48.84 40.73 2.07 114.78-1.61 205.08-51.4z" fill="#ac7fe5"/><path d="m937.33 937.21-1.12-1.66c46.79-31.55 94.72-92.55 95.2-93.13l1.57 1.23c-.48.62-48.57 61.83-95.65 93.56z" fill="#735ab1"/><path d="m923.73 942.45-1.74-1c14.86-26.18 28.93-63.88 38.11-90.89 10-29.29 16.48-52.68 16.54-52.91l1.93.54c-.07.23-6.6 23.66-16.57 53-9.21 27.11-23.33 64.94-38.27 91.26z" fill="#735ab1"/><path d="m907.13 942.69c-.09-.71-9-71.1-44.46-116.39l1.57-1.23c35.76 45.73 44.76 116.66 44.87 117.37z" fill="#735ab1"/><path d="m855.52 961.43c-.44-.64-44.75-64.23-78.75-85.64l1.07-1.7c34.34 21.63 78.88 85.56 79.33 86.2z" fill="#735ab1"/><path d="m810.24 963.34c-.38-.06-38.76-5.92-81.06-14.79-56.89-11.93-93.4-23.32-108.51-33.84l1.14-1.65c35.57 24.78 187.2 48.07 188.73 48.3z" fill="#735ab1"/><path d="m89.58 912.63s-59-24.47-48.28-62.4 44.06 3.51 44.06 3.51-27.61-27.3 5.29-42 51.78 48.08 51.78 48.08 26.66-36.58 55.73-17.69 7.19 44.86 7.19 44.86 39.56-22.66 53.66-7.81 6.21 39 6.21 39 90.16-24.77 122.93-10c4.79 2.16 6.66 4.37 6.84 6.61 1.21 14.59-74.93 37.66-134.44 40.71-33.95 1.71-95.69-1.36-170.97-42.87z" fill="#ac7fe5"/><path d="m125.5 931.18c-39.27-26.47-79.38-77.52-79.78-78l1.58-1.24c.39.51 40.31 51.32 79.32 77.61z" fill="#735ab1"/><path d="m136.79 935.49c-23.79-41.99-45.52-119.49-45.74-120.3l1.93-.54c.22.78 21.83 78.07 45.55 119.85z" fill="#735ab1"/><path d="m150.94 935.63-2-.24c.07-.6 7.57-59.78 37.44-97.94l1.58 1.23c-29.51 37.72-36.96 96.32-37.02 96.95z" fill="#735ab1"/><path d="m193.93 951.33-1.64-1.14c.37-.54 37.52-53.86 66.19-71.91l1.06 1.69c-28.32 17.84-65.24 70.82-65.61 71.36z" fill="#735ab1"/><path d="m232.58 956.45-.38-2c1.26-.25 126.66-25.22 155.34-47.14l1.21 1.59c-12.21 9.34-42.22 20.17-89.18 32.2-34.92 8.99-66.67 15.29-66.99 15.35z" fill="#735ab1"/></svg>