<svg id="Layer_1" enable-background="new 0 0 512 512" height="512" viewBox="0 0 512 512" width="512" xmlns="http://www.w3.org/2000/svg"><g><path d="m245.002 10.998c-84.347 0-158.734 42.627-202.806 107.51l289.39 366.737c92.577-34.985 158.418-124.419 158.418-229.245 0-135.311-109.691-245.002-245.002-245.002z" fill="#88ce65"/><path d="m299.881 459.819c-15.727 0-34.822-1.253-42.963-11.021-6.5-7.801-3.367-18.38-3.333-19.449l-.857-.541c-12.564-7.942-20.227-18.96-21.024-30.229-.943-13.342 7.91-19.605 8.053-19.805l-.018-.716c-.788-30.791-9.668-42.632-15.171-52.905-30.663-56.215-22.014-94.705-22.141-96.009l-.556-.527c-5.938-5.627-6.726-14.808-1.833-21.355l.428-.571-.175-.693c-6.39-25.343-6.546-59.506-6.576-61.115-1.049.237-28.551 36.101-58.777 30.298-7.362 24.8-21.911 42.11-43.433 51.594-16.28 7.174-31.701 7.58-45.838 1.205-17.106-7.712-29.461-24.133-36.963-36.914-5.671 20.68-8.704 42.452-8.704 64.934 0 135.311 109.691 245.002 245.002 245.002 30.485 0 59.661-5.584 86.583-15.757 1.729-10.024 3.093-20.354 3.969-30.874-8.88 4.53-21.989 5.448-35.673 5.448z" fill="#543e5b"/><path d="m136.376 175.428c-15.491-2.313-31.8-15.312-45.706-49.501-15.551-.821-30.793-2.862-45.13-6.55-1.12-.288-2.232-.579-3.344-.869-15.266 22.474-26.887 47.621-34.032 74.588 14.83 24.698 42.192 53.453 83.947 35.052 24.991-11.014 37.905-31.397 44.265-52.72z" fill="#bec8f7"/><path d="m501.446 97.095c-11.963-.811-26.056 2.009-38.558 14.511-7.768 7.768-14.811 12.967-20.96 16.423 1.777.606 3.689 1.102 5.753 1.472-.943 3.924-2.475 13.901 3.369 22.695 5.468 8.228 15.828 13.044 30.776 14.351 14.004-12.688 23.357-31.203 28.707-44.404 3.841-9.478-.094-20.298-9.087-25.048z" fill="#f9a0b1"/><path d="m449.575 128.287c-2.162-.31-4.123-.74-5.904-1.27-9.667 5.8-17.272 7.329-22.188 7.518-8.057.311-15.873 3.189-21.677 8.785-2.742 2.643-5.42 5.975-7.642 10.104 41.543 38.335 71.244 30.793 91.141 11.747-45.139-3.234-33.73-36.884-33.73-36.884z" fill="#ff7186"/><path d="m501 96.846c-32.269-15.998-52.642-1.636-73.637-1.526-1.608 6.436-2.454 14.997 1.319 22.132 3.353 6.338 9.739 10.387 18.994 12.049 5.187-3.347 10.918-7.902 17.112-14.096 13.734-13.734 29.386-15.784 42.027-14.17-1.608-1.765-3.556-3.268-5.815-4.389z" fill="#6c5475"/><path d="m372.102 97.268c9.744 20.608 19.797 29.497 24.098 56.432 1.718-2.547 3.593-4.739 5.504-6.581 5.805-5.596 13.621-8.475 21.677-8.785 5.567-.214 14.583-2.15 26.135-10.056-24.203-3.503-23.473-21.766-20.579-32.992-6.648.252-13.326-.812-20.434-4.622-19.355-10.372-35.062-13.463-44.545-14.277 1.862 6.169 4.486 13.143 8.144 20.879z" fill="#45304c"/><path d="m104.058 166.553c14.984-1.298 25.366-6.117 30.842-14.356 5.844-8.795 4.312-18.771 3.369-22.695 2.046-.367 3.943-.857 5.707-1.457-6.155-3.456-13.208-8.659-20.988-16.438-12.502-12.501-26.595-15.321-38.558-14.511-8.992 4.75-12.928 15.57-9.087 25.048 5.352 13.202 14.707 31.72 28.715 44.409z" fill="#f9a0b1"/><path d="m186.073 143.32c-5.804-5.596-13.62-8.475-21.677-8.785-4.913-.189-12.51-1.715-22.165-7.504-1.768.523-3.712.948-5.855 1.256 0 0 11.422 33.684-33.796 36.89 19.897 19.042 49.597 26.58 91.136-11.752-2.223-4.13-4.901-7.461-7.643-10.105z" fill="#ff7186"/><path d="m138.281 129.55c-.004-.015-.008-.034-.011-.049 9.259-1.661 15.646-5.71 19-12.05 3.773-7.134 2.928-15.696 1.319-22.131-21.021-.077-41.404-14.491-73.71 1.525-2.26 1.121-4.207 2.624-5.815 4.389 12.64-1.614 28.293.436 42.027 14.17 6.225 6.225 11.982 10.795 17.19 14.146z" fill="#6c5475"/><path d="m177.375 90.664c-7.082 3.795-13.738 4.866-20.361 4.624 2.896 11.236 3.624 29.517-20.638 32.999 11.545 7.898 20.556 9.833 26.121 10.046 8.057.311 15.873 3.189 21.677 8.785 1.911 1.842 3.786 4.034 5.504 6.581 4.299-26.922 14.395-35.91 24.098-56.431l-.001-.003c3.658-7.736 6.282-14.71 8.144-20.879-9.482.815-25.189 3.906-44.544 14.278z" fill="#45304c"/><path d="m355.536 53.347c-24.7 7.694-64.597 28.108-64.597 73.671v161.574c0 22.07 12.37 42.189 31.924 52.422 11.592 6.066 24.416 14.56 34.952 26.002 1.412-10.201 4.234-21.064 9.611-30.366 1.817-3.144 3.719-6.562 5.643-10.218-44.331-30.062-39.784-110.138-19.695-148.831 13.147-25.323 19.506-57.824 22.526-80.334-4.13-8.735-6.946-16.501-8.83-23.229-2.205-7.879-6.215-14.922-11.534-20.691z" fill="#deeeff"/><path d="m358.074 365.173c-10.189-10.517-22.251-18.424-33.211-24.16-19.554-10.233-31.924-30.352-31.924-52.422v-161.574c0-44.616 38.257-65.117 63.039-73.174-7.843-8.733-18.642-14.65-30.766-16.267-21.421-2.858-43.126-2.858-64.547 0-20.003 2.668-36.417 17.028-41.857 36.461-1.884 6.729-4.7 14.495-8.83 23.229 3.02 22.51 9.379 55.011 22.526 80.334 20.088 38.693 24.635 118.769-19.696 148.831 1.923 3.655 3.826 7.074 5.643 10.218 8.985 15.543 10.868 35.457 10.885 49.329 12.12-10.253 36.05-12.593 63.603-12.593s51.483 2.34 63.603 12.593c.007-6.07.372-13.295 1.532-20.805z" fill="#bec8f7"/><path d="m213.796 328.284c47.36-28.513 43.015-111.183 22.507-150.684-14.49-27.91-20.749-64.582-23.363-86.935-3.307 7.838-7.722 16.575-13.595 26.164-21.111 34.473-15.068 72.201-10.174 90.281 1.87 6.907 2.559 14.113 1.569 21.2-5.304 37.997 9.665 74.985 23.056 99.974z" fill="#6c5475"/><path d="m372.082 328.284c-47.36-28.513-43.015-111.183-22.507-150.684 14.49-27.91 20.749-64.582 23.363-86.935 3.307 7.838 7.722 16.575 13.595 26.164 21.111 34.473 15.069 72.201 10.174 90.281-1.87 6.907-2.559 14.113-1.569 21.2 5.304 37.997-9.665 74.985-23.056 99.974z" fill="#876d93"/><path d="m292.939 445.29c-18.811 0-35.931-4.816-48.762-12.694-.853 2.953-1.318 6.026-1.318 9.188 0 22.302 22.422 26.392 50.08 26.392 27.659 0 50.08-4.089 50.08-26.392 0-3.162-.465-6.235-1.318-9.188-12.831 7.878-29.951 12.694-48.762 12.694z" fill="#ff4155"/><path d="m331.368 432.236c-3.334-4.878-1.064-10.854-1.043-10.91l.44-1.113-11.698-8.023-.296-.061c-11.732-2.421-19.539-7.527-23.204-15.179-4.597-9.594-1.679-21.123.573-27.353-1.062-.007-2.127-.013-3.201-.013-39.79 0-72.046 4.869-72.046 31.423s32.256 48.08 72.046 48.08c17.798 0 34.077-4.316 46.648-11.453-3.797-1.162-6.553-2.96-8.219-5.398z" fill="#ff7186"/><path d="m294.536 369.592c-3.954 11.213-9.162 37.178 23.933 44.007l10.462 7.174s-5.035 12.711 8.881 17.836c16.553-8.809 27.173-22.374 27.173-37.602 0-26.195-31.399-31.283-70.449-31.415z" fill="#f9a0b1"/><path d="m323.649 422.465c-5.218 1.421-8.914-4.954-5.18-8.866 2.722-2.852 5.187-6.074 6.497-9.351.504-1.259.948-2.518 1.339-3.757 3.565-11.279 19.482-11.825 23.271-.62.042.125.084.252.124.379 2.762 8.806-11.775 18.327-26.051 22.215z" fill="#6c5475"/><path d="m262.229 422.465c5.218 1.421 8.914-4.954 5.18-8.866-2.722-2.852-5.187-6.074-6.497-9.351-.504-1.259-.948-2.518-1.339-3.757-3.565-11.279-19.482-11.825-23.271-.62-.042.125-.084.252-.124.379-2.762 8.806 11.775 18.327 26.051 22.215z" fill="#6c5475"/><g fill="#45304c"><ellipse cx="382.697" cy="215.765" rx="18.225" ry="18.225" transform="matrix(.707 -.707 .707 .707 -40.48 333.804)"/><ellipse cx="203.181" cy="215.765" rx="18.225" ry="18.225" transform="matrix(.23 -.973 .973 .23 -53.494 363.939)"/><path d="m30.57 374.571c20.575 37.129 50.504 68.352 86.616 90.479-6.997-24.177-8.2-47.221-7.129-66.162.973-17.197-14.855-30.276-31.645-26.432-16.178 3.705-33.095 3.628-47.842 2.115z"/></g><path d="m231.571 11.368c-44.79 2.42-86.381 16.867-121.598 40.175 33.364 15.805 89.523 28.639 121.598-40.175z" fill="#b4d667"/><path d="m423.696 266.048c0 46.369-12.207 73.083-18.747 84.068-4.654 7.817-7.799 16.465-8.867 25.501-1.897 16.052.531 38.352 23.295 52.465 43.669-44.238 70.627-105.009 70.627-172.083 0-15.566-1.469-30.788-4.244-45.548-26.031 3.286-62.064 15.14-62.064 55.597z" fill="#b4d667"/></g></svg>