<svg height="512" viewBox="0 0 512 512" width="512" xmlns="http://www.w3.org/2000/svg"><g id="FLAT"><path d="m16 384h480v112h-480z" fill="#bebebe"/><path d="m408 192 32 8 48-96-160-80-168 360h192l72-152-40 8-32-32h32z" fill="#edad2e"/><g fill="#db9416"><path d="m321.167 86.111h53.666v35.777h-53.666z" transform="matrix(.447 -.894 .894 .447 99.349 368.75)"/><path d="m385.167 118.111h53.666v35.777h-53.666z" transform="matrix(.447 -.894 .894 .447 106.106 443.683)"/><path d="m281.167 166.111h53.666v35.777h-53.666z" transform="matrix(.447 -.894 .894 .447 5.684 377.196)"/><path d="m313.167 278.111h53.666v35.777h-53.666z" transform="matrix(.447 -.894 .894 .447 -76.803 467.73)"/><path d="m241.167 246.111h53.666v35.777h-53.666z" transform="matrix(.447 -.894 .894 .447 -87.982 385.642)"/></g><path d="m72 40v248h32l24-24 16 16 56-24v16l-40 40h-24l-16 16h-48v56h192v-344z" fill="#008afe"/><path d="m112 72h32v56h-32z" fill="#006cda"/><path d="m192 72h32v56h-32z" fill="#006cda"/><path d="m112 168h32v56h-32z" fill="#006cda"/><path d="m192 168h32v56h-32z" fill="#006cda"/><path d="m464 240 24 24-16 32-32-8 16-16z" fill="#edad2e"/><path d="m420 327.056h16v17.889h-16z" fill="#edad2e" transform="matrix(.894 -.447 .447 .894 -105.079 226.88)"/><path d="m472 340.686h16v22.627h-16z" fill="#edad2e" transform="matrix(.707 -.707 .707 .707 -108.313 442.51)"/><path d="m496 40h-16a8.00917 8.00917 0 0 0 -8-8v-16a24.02687 24.02687 0 0 1 24 24z" fill="#dfdfdf"/><path d="m29.657 109.657-11.314-11.314 10.344-10.343-16-16 16-16-16-16 21.656-21.657 11.314 11.314-10.344 10.343 16 16-16 16 16 16z" fill="#dfdfdf"/><path d="m28.686 200h22.627v16h-22.627z" fill="#008afe" transform="matrix(.707 -.707 .707 .707 -135.362 89.206)"/><path d="m24 316.686h16v22.627h-16z" fill="#008afe" transform="matrix(.707 -.707 .707 .707 -222.558 118.696)"/><path d="m480 72h-16a24.00815 24.00815 0 0 0 -35.99414-20.794l-8.01172-13.8496a40.00808 40.00808 0 0 1 60.00586 34.6436z" fill="#dfdfdf"/><path d="m416 408h80v16h-80z" fill="#8c8c8c"/><path d="m200 272-16 16v32h40v-56h-24z" fill="#006cda"/><path d="m352 408h-92.687l-24-24h-22.626l24 24-36.687 36.687-12.686-12.687 23.999-24-24-24h-22.627l24 24-23.999 24 24 24-18.344 18.343 11.314 11.314 61.656-61.657h108.687z" fill="#8c8c8c"/><path d="m16 408h144v16h-144z" fill="#8c8c8c"/><path d="m411.313 384h-22.626l-24 24 32 32-20.687 20.687v35.313h16v-28.687l27.313-27.313-32-32z" fill="#8c8c8c"/></g></svg>