<svg id="Capa_1" enable-background="new 0 0 512 512" height="512" viewBox="0 0 512 512" width="512" xmlns="http://www.w3.org/2000/svg"><g><circle cx="256" cy="256" fill="#0067c5" r="240"/><path d="m342.1 31.907c67.687 42.436 112.692 117.707 112.692 203.489 0 132.548-107.452 240-240 240-30.345 0-59.374-5.632-86.1-15.907 36.901 23.135 80.542 36.511 127.308 36.511 132.548 0 240-107.452 240-240 0-102.203-63.885-189.486-153.9-224.093z" fill="#0055a3"/><circle cx="256" cy="256" fill="#0055a3" r="160"/><path d="m306.127 104.01c41.504 28.906 68.666 76.974 68.666 131.386 0 88.366-71.634 160-160 160-17.508 0-34.359-2.813-50.127-8.01 25.898 18.038 57.381 28.614 91.334 28.614 88.366 0 160-71.634 160-160 0-70.857-46.06-130.956-109.873-151.99z" fill="#004281"/><path d="m224.547 0h-11.547c-2.761 0-5 2.239-5 5v122.548c0 8.615-6.621 16.028-15.227 16.434-9.188.432-16.773-6.889-16.773-15.982v-123c0-2.761-2.239-5-5-5h-22c-2.761 0-5 2.239-5 5v122.548c0 8.615-6.621 16.028-15.227 16.434-9.188.432-16.773-6.889-16.773-15.982v-123c0-2.761-2.239-5-5-5h-11.547c-8.535 0-15.453 6.918-15.453 15.453v131.284c0 29.986 17.082 55.983 42.046 68.789 12.659 6.494 20.526 19.601 19.778 33.809l-12.143 230.711c-.913 17.369 12.925 31.954 30.319 31.954 17.394 0 31.232-14.585 30.318-31.956l-12.143-230.711c-.748-14.207 7.119-27.315 19.778-33.809 24.965-12.805 42.047-38.801 42.047-68.788v-131.283c0-8.535-6.918-15.453-15.453-15.453z" fill="#b2caec"/><path d="m432 128c0-61.856-28.807-128-80-128s-80 66.144-80 128c0 43.267 17.524 72.975 43.178 86.923 12.173 6.619 19.422 19.677 18.694 33.513l-12.19 231.608c-.914 17.371 12.924 31.956 30.318 31.956 17.394 0 31.232-14.586 30.318-31.956l-12.19-231.608c-.728-13.837 6.521-26.895 18.694-33.513 25.654-13.948 43.178-43.656 43.178-86.923z" fill="#b2caec"/><g fill="#82aee3"><path d="m224.547 0h-11.547c-2.761 0-5 2.239-5 5v122.548c0 7.177-4.594 13.519-11.103 15.671-5.106 22.618-20.133 41.476-40.267 51.762-12.627 6.451-20.407 19.589-19.661 33.749l.047.897c3.421 5.844 5.181 12.639 4.809 19.707l-12.143 230.711c-.914 17.37 12.924 31.955 30.318 31.955 17.394 0 31.232-14.585 30.318-31.956l-12.143-230.71c-.748-14.207 7.119-27.315 19.778-33.809 24.965-12.806 42.047-38.802 42.047-68.789v-131.283c0-8.535-6.918-15.453-15.453-15.453z"/><path d="m355.503.105c22.924 24.4 35.29 66.766 35.29 107.292 0 43.267-17.524 72.975-43.178 86.923-12.173 6.618-19.422 19.677-18.694 33.513l.021.406c3.522 5.987 5.309 12.986 4.929 20.197l-12.19 231.608c-.913 17.37 12.925 31.956 30.319 31.956 17.394 0 31.232-14.586 30.318-31.956l-12.19-231.608c-.728-13.837 6.521-26.895 18.694-33.513 25.654-13.948 43.178-43.656 43.178-86.923 0-60.431-27.495-124.954-76.497-127.895z"/></g></g></svg>