<svg id="Capa_1" enable-background="new 0 0 512 512" height="512" viewBox="0 0 512 512" width="512" xmlns="http://www.w3.org/2000/svg" xmlns:xlink="http://www.w3.org/1999/xlink"><linearGradient id="SVGID_1_" gradientUnits="userSpaceOnUse" x1="256" x2="256" y1="467" y2="227"><stop offset="0" stop-color="#ffe59a"/><stop offset="1" stop-color="#ffffd5"/></linearGradient><linearGradient id="SVGID_2_" gradientUnits="userSpaceOnUse" x1="256" x2="256" y1="512" y2="0"><stop offset="0" stop-color="#fd5900"/><stop offset="1" stop-color="#ffde00"/></linearGradient><g id="Money_2_"><g><g><path d="m436 257c0-16.538-13.447-30-30-30h-300c-16.553 0-30 13.462-30 30-16.553 0-30 13.462-30 30v120c0 16.538 13.447 30 30 30 0 16.538 13.447 30 30 30h300c16.553 0 30-13.462 30-30 16.553 0 30-13.462 30-30v-120c0-16.538-13.447-30-30-30zm-180 120c-16.553 0-30-13.462-30-30s13.447-30 30-30 30 13.462 30 30-13.447 30-30 30z" fill="url(#SVGID_1_)"/></g></g><g><g><path d="m166 332h-30c-8.291 0-15 6.709-15 15s6.709 15 15 15h30c8.291 0 15-6.709 15-15s-6.709-15-15-15zm210 0h-30c-8.291 0-15 6.709-15 15s6.709 15 15 15h30c8.291 0 15-6.709 15-15s-6.709-15-15-15zm-120-30c-24.814 0-45 20.186-45 45s20.186 45 45 45 45-20.186 45-45-20.186-45-45-45zm241-120h-482c-8.291 0-15 6.709-15 15v300c0 8.291 6.709 15 15 15h482c8.291 0 15-6.709 15-15v-300c0-8.291-6.709-15-15-15zm-46 225c0 8.291-6.709 15-15 15-8.276 0-15 6.724-15 15 0 8.291-6.709 15-15 15h-300c-8.291 0-15-6.709-15-15 0-8.276-6.724-15-15-15-8.291 0-15-6.709-15-15v-120c0-8.291 6.709-15 15-15 8.276 0 15-6.724 15-15 0-8.291 6.709-15 15-15h300c8.291 0 15 6.709 15 15 0 8.276 6.724 15 15 15 8.291 0 15 6.709 15 15zm-120-287c33.091 0 60-26.909 60-60s-26.909-60-60-60-60 26.909-60 60 26.909 60 60 60zm-150 30c33.091 0 60-26.909 60-60s-26.909-60-60-60-60 26.909-60 60 26.909 60 60 60z" fill="url(#SVGID_2_)"/></g></g></g></svg>