<svg clip-rule="evenodd" fill-rule="evenodd" height="850" image-rendering="optimizeQuality" shape-rendering="geometricPrecision" text-rendering="geometricPrecision" viewBox="0 0 850 850" width="850" xmlns="http://www.w3.org/2000/svg" xmlns:xlink="http://www.w3.org/1999/xlink"><linearGradient id="id0" gradientUnits="userSpaceOnUse" x1="-.001" x2="850.001" y1="425" y2="425"><stop offset="0" stop-color="#26a9e0"/><stop offset=".0901961" stop-color="#2297d3"/><stop offset=".231373" stop-color="#1e84c6"/><stop offset=".368627" stop-color="#1c79be"/><stop offset=".521569" stop-color="#1b75bb"/><stop offset=".960784" stop-color="#2b388f"/><stop offset="1" stop-color="#2b388f"/></linearGradient><circle cx="425" cy="425" fill="url(#id0)" r="425.001"/><g id="Layer_x0020_1"><g id="_474758608" fill="#fefefe"><path id="_474760648" d="m672.997 641.382h-495.995c-4.41969 0-7.99961-3.57992-7.99961-7.99961 0-4.42087 3.57992-8.00079 7.99961-8.00079h495.995c4.41969 0 7.99961 3.57992 7.99961 8.00079 0 4.41969-3.58229 7.99961-7.99961 7.99961z"/><path id="_474760528" d="m553.569 641.382h-63.6532v-82.3914c0-35.7992-29.1213-64.9205-64.9158-64.9205s-64.9158 29.1213-64.9158 64.9205v82.3914h-63.6579c-4.41969 0-7.99961-3.57992-7.99961-7.99961v-210.466c0-4.42087 3.57992-7.99961 7.99961-7.99961h257.143c4.41969 0 7.99961 3.57874 7.99961 7.99961v210.463c0 4.41733-3.57756 8.00198-7.99961 8.00198zm-79.6536 0h-97.8308v-82.3938c0-26.9717 21.9461-48.9213 48.9154-48.9213s48.9154 21.9461 48.9154 48.9213z"/><path id="_474759640" d="m668.014 465.146h-90.4465v-4.56733-37.6618-25.565h90.4465c4.42087 0 7.99961 3.57992 7.99961 7.99961v51.7949c0 4.41733-3.57874 7.99961-7.99961 7.99961z"/><path id="_474759760" d="m651.869 641.382h-41.1496v-76.8201c0-4.41969-3.57992-7.99961-7.99961-7.99961-4.42087 0-7.99961 3.57992-7.99961 7.99961v76.8201h-18.5209c.885828-2.50394 1.3689-5.19686 1.3689-8.00198v-152.235h82.3005v152.237c0 4.41496-3.57992 7.99961-7.99961 7.99961z"/><path id="_474760096" d="m324.948 398.918c6.34134-36.1737 28.5-48.8552 53.5111-63.1595 13.6205-7.79174 29.0587-16.6193 44.3788-30.541 3.05433-2.77441 7.70906-2.77441 10.7599 0 15.3236 13.9217 30.7618 22.7457 44.3811 30.5362 25.0134 14.3079 47.1685 26.987 53.5111 63.1642h-206.542z"/><path id="_474759952" d="m428.217 319.144c-4.42087 0-7.99961-3.57992-7.99961-8.00079v-44.0953c0-4.42087 3.57874-7.99961 7.99961-7.99961s7.99961 3.57874 7.99961 7.99961v44.0953c0 4.41733-3.57874 8.00079-7.99961 8.00079z"/><path id="_474759904" d="m436.833 275.986c-18.104 0-32.8335-14.7295-32.8335-32.8323 0-18.104 14.7295-32.8335 32.8335-32.8335 4.41969 0 7.99961 3.57992 7.99961 8.00079 0 4.41969-3.57992 7.99961-7.99961 7.99961-9.28347 0-16.8331 7.55434-16.8331 16.8331 0 9.27875 7.55434 16.8319 16.8331 16.8319 6.34843 0 12.0957-3.51614 14.9988-9.17835 2.00788-3.92953 6.8256-5.50158 10.7669-3.47599 3.93426 2.0126 5.48859 6.83268 3.47599 10.7669-5.6504 11.0327-16.8555 17.8878-29.2418 17.8878z"/><path id="_474759688" d="m564.303 381.352v-25.5142c0-4.41969 3.57874-7.99961 7.99961-7.99961h76.9784c4.42087 0 7.99961 3.57992 7.99961 7.99961v25.5142h-92.9776z"/><path id="_474759832" d="m651.076 363.839h-80.5666c-14.0953 0-25.5614-11.4662-25.5614-25.5626v-32.4402c0-4.42087 3.57992-7.99961 7.99961-7.99961h115.69c4.42087 0 7.99961 3.57874 7.99961 7.99961v32.4402c0 14.0965-11.4662 25.5626-25.5614 25.5626z"/><path id="_474758800" d="m558.284 281.837c1.62874-20.7307 12.1488-28.5626 27.4429-37.3075 6.38032-3.64607 12.9756-7.42087 19.6878-13.5165 3.05079-2.76969 7.70906-2.76969 10.7599 0 6.70867 6.09567 13.3039 9.87048 19.6878 13.5165 15.2941 8.74607 25.8154 16.578 27.4441 37.3075h-105.023z"/><path id="_474758776" d="m610.793 244.931c-4.42087 0-8.00079-3.57992-8.00079-7.99961v-20.3114c0-4.42087 3.57992-8.00079 8.00079-8.00079 4.41969 0 7.99961 3.57992 7.99961 8.00079v20.3114c0 4.42205-3.58229 7.99961-7.99961 7.99961z"/><path id="_474758752" d="m272.427 465.146h-90.4418c-4.42087 0-7.99961-3.57874-7.99961-7.99961v-51.7949c0-4.41969 3.57874-7.99961 7.99961-7.99961h90.515v23.6788c-.0484252.622442-.0732284 1.25197-.0732284 1.88622v42.2292z"/><path id="_474758992" d="m273.796 641.382h-18.5185v-76.8201c0-4.41969-3.57992-7.99961-7.99961-7.99961-4.42087 0-8.00079 3.57992-8.00079 7.99961v76.8201h-41.1461c-4.41969 0-7.99961-3.57992-7.99961-7.99961v-152.237h82.2957v152.237c0 2.80512.484252 5.49686 1.3689 7.99961z"/><path id="_474759424" d="m192.715 381.352v-25.5142c0-4.41969 3.57874-7.99961 7.99961-7.99961h76.9784c4.42087 0 7.99961 3.57992 7.99961 7.99961v25.5142h-92.9776z"/><path id="_474759256" d="m279.49 363.839h-80.5666c-14.0953 0-25.5614-11.4662-25.5614-25.5626v-32.4402c0-4.42087 3.57874-7.99961 7.99961-7.99961h115.686c4.41969 0 7.99961 3.57874 7.99961 7.99961v32.4402c0 14.0965-11.4662 25.5626-25.5567 25.5626z"/><path id="_474758176" d="m186.696 281.837c1.62874-20.7284 12.15-28.5591 27.4441-37.3075 6.37914-3.64607 12.9744-7.42087 19.6878-13.5165 3.04961-2.76969 7.70788-2.76969 10.7587 0 6.70867 6.09567 13.3087 9.86576 19.6878 13.5165 15.2941 8.74607 25.8154 16.578 27.4441 37.3075h-105.023z"/><path id="_474758008" d="m239.207 244.931c-4.41969 0-7.99961-3.57992-7.99961-7.99961v-20.3114c0-4.42087 3.57992-8.00079 7.99961-8.00079 4.42087 0 8.00079 3.57992 8.00079 8.00079v20.3114c0 4.42205-3.58465 7.99961-8.00079 7.99961z"/></g></g></svg>