<svg enable-background="new 0 0 32 32" height="512" viewBox="0 0 32 32" width="512" xmlns="http://www.w3.org/2000/svg"><g id="Palestine"><path d="m20.354 1.938h-8.708c-5.354 0-9.709 4.355-9.709 9.708v8.709c0 5.353 4.355 9.708 9.709 9.708h8.708c5.353 0 9.708-4.355 9.708-9.708v-8.709c.001-5.354-4.355-9.708-9.708-9.708z" fill="#efefef"/><path d="m30.058 11.556c-.049-5.312-4.381-9.618-9.703-9.618h-8.708c-5.323 0-9.655 4.307-9.704 9.618z" fill="#282828"/><path d="m1.962 20.838c.255 5.128 4.494 9.225 9.685 9.225h8.708c5.189 0 9.429-4.097 9.684-9.225z" fill="#1e7748"/><path d="m3.593 6.229c-1.045 1.548-1.655 3.412-1.655 5.416v8.709c0 2.065.653 3.978 1.757 5.553l11.092-9.595z" fill="#d3243e"/><path d="m30.06 11.65v8.7c0 5.36-4.35 9.71-9.71 9.71h-8.7c-1.141 0-2.23-.2-3.25-.56l8.77-.75c9.061-1.25 9.41-7.37 9.41-7.37l-.04-10.63s-.19-6.25-7.72-8.81h1.529c5.361 0 9.711 4.35 9.711 9.71z" fill="#160204" opacity=".13"/><path d="m1.94 20.35v-8.7c0-5.36 4.35-9.71 9.71-9.71h3.369c-2.64.53-9.77 2.58-10.85 9.14l-.05 10.7s.26 4.36 2.189 6.68c-2.628-1.74-4.368-4.72-4.368-8.11z" fill="#fff" opacity=".2"/></g></svg>