<svg id="Layer_1" enable-background="new 0 0 512 512" viewBox="0 0 512 512" xmlns="http://www.w3.org/2000/svg" xmlns:xlink="http://www.w3.org/1999/xlink"><linearGradient id="lg1"><stop offset="0" stop-color="#c86d36"/><stop offset=".201" stop-color="#c46b35"/><stop offset=".4143" stop-color="#b76233"/><stop offset=".6334" stop-color="#a2552f"/><stop offset=".8549" stop-color="#85422a"/><stop offset="1" stop-color="#6d3326"/></linearGradient><linearGradient id="SVGID_1_" gradientTransform="matrix(-.707 .707 .707 .707 250.156 -103.618)" gradientUnits="userSpaceOnUse" x1="216.333" x2="313.888" xlink:href="#lg1" y1="280.098" y2="280.098"/><linearGradient id="lg2"><stop offset="0" stop-color="#3a0f13" stop-opacity="0"/><stop offset=".2722" stop-color="#3e1215" stop-opacity=".272"/><stop offset=".5611" stop-color="#4b1b19" stop-opacity=".561"/><stop offset=".8568" stop-color="#602a21" stop-opacity=".857"/><stop offset="1" stop-color="#6d3326"/></linearGradient><linearGradient id="SVGID_00000012436601767409814270000016393218005347000244_" gradientUnits="userSpaceOnUse" x1="319.149" x2="286.321" xlink:href="#lg2" y1="332.89" y2="300.063"/><linearGradient id="SVGID_00000173852296656931892380000007391914129732139653_" gradientTransform="matrix(-.707 .707 .707 .707 250.156 -103.618)" gradientUnits="userSpaceOnUse" x1="311.034" x2="274.431" xlink:href="#lg1" y1="112.913" y2="112.913"/><linearGradient id="SVGID_00000042731700951751207730000016352897669718606250_" gradientTransform="matrix(-.707 .707 .707 .707 250.156 -103.618)" gradientUnits="userSpaceOnUse" x1="240.448" x2="203.18" xlink:href="#lg1" y1="112.913" y2="112.913"/><linearGradient id="SVGID_00000114780856644799540490000001009091226817175220_" gradientTransform="matrix(-.707 .707 .707 .707 250.156 -103.618)" gradientUnits="userSpaceOnUse" x1="259.871" x2="259.871" xlink:href="#lg2" y1="521.229" y2="570.333"/><linearGradient id="SVGID_00000168807469789150934040000004159552298568079017_" gradientTransform="matrix(-.707 .707 .707 .707 250.156 -103.618)" gradientUnits="userSpaceOnUse" x1="275.522" x2="240.855" xlink:href="#lg1" y1="511.39" y2="511.39"/><linearGradient id="SVGID_00000106855713717970563560000002591416748863100589_" gradientTransform="matrix(.707 .707 -.707 .707 210.582 20.14)" gradientUnits="userSpaceOnUse" x1="177.314" x2="274.869" xlink:href="#lg1" y1="119.611" y2="119.611"/><linearGradient id="SVGID_00000062874706957391422060000002357595938142311556_" gradientTransform="matrix(.707 .707 -.707 .707 210.582 20.14)" gradientUnits="userSpaceOnUse" x1="292.815" x2="149.817" xlink:href="#lg1" y1="-53.798" y2="-53.798"/><linearGradient id="SVGID_00000065044881486513776380000011464330338840069029_" gradientTransform="matrix(.707 .707 -.707 .707 210.582 20.14)" gradientUnits="userSpaceOnUse" x1="220.851" x2="220.851" xlink:href="#lg2" y1="360.742" y2="409.846"/><linearGradient id="SVGID_00000082365060812984572950000009385724176876328080_" gradientTransform="matrix(.707 .707 -.707 .707 210.582 20.14)" gradientUnits="userSpaceOnUse" x1="236.502" x2="201.836" xlink:href="#lg1" y1="350.903" y2="350.903"/><g><g><path d="m5.844 148.378 71.595 71.595c29.902 29.902 67.727 44.714 100.491 42.618 18.699-1.2 36.912 6.193 49.419 20.143 43.966 49.08 120.808 133.872 188.449 203.426l.4.4c15.595 15.595 40.939 15.612 56.586-.035 15.777-15.777 15.629-41.426-.365-56.986-69.554-67.641-154.346-144.483-203.426-188.449-13.951-12.507-21.344-30.72-20.143-49.419 2.096-32.764-12.716-70.589-42.618-100.491l-71.595-71.595c-7.793-7.793-20.427-7.793-28.22 0-7.793 7.793-7.793 20.427 0 28.22l60.562 60.562c6.093 6.093 6.093 15.973 0 22.066-6.093 6.093-15.973 6.093-22.066 0l-60.562-60.561c-8.019-8.019-21.164-7.786-28.886.698-7.232 7.946-6.533 20.323 1.064 27.92l60.164 60.164c6.093 6.093 6.093 15.973 0 22.066-6.093 6.093-15.973 6.093-22.066 0l-60.562-60.562c-7.793-7.793-20.427-7.793-28.22 0-7.793 7.793-7.793 20.428-.001 28.22zm403.171 293.617c-5.018-5.018-5.018-13.159 0-18.178l1.061-1.061c5.018-5.018 13.159-5.019 18.178 0l18.743 18.743c5.018 5.018 5.018 13.159 0 18.178l-1.061 1.061c-5.018 5.018-13.159 5.019-18.178 0z" fill="url(#SVGID_1_)"/><path d="m247.451 305.105c26.158 29.025 59.07 65.203 93.495 102.188l52.605-52.605c-36.985-34.426-73.163-67.338-102.188-93.496z" fill="url(#SVGID_00000012436601767409814270000016393218005347000244_)"/><g><path d="m136.534 178.495c6.094 6.094 6.094 15.973 0 22.066s-15.973 6.094-22.067 0l-19.841-19.841c6.094 6.094 15.973 6.094 22.067 0s6.094-15.973 0-22.067z" fill="url(#SVGID_00000173852296656931892380000007391914129732139653_)"/><path d="m186.82 128.208c6.094 6.094 6.094 15.973 0 22.066s-15.973 6.094-22.067 0l-19.841-19.841c6.094 6.094 15.973 6.094 22.066 0s6.094-15.973 0-22.067z" fill="url(#SVGID_00000042731700951751207730000016352897669718606250_)"/></g><path d="m415.799 486.161.4.4c15.595 15.595 40.939 15.612 56.586-.035 15.777-15.777 15.629-41.426-.365-56.986-32.972-32.068-69.38-66.197-103.77-97.925l-50.776 50.776c31.728 34.389 65.857 70.797 97.925 103.77zm-6.784-44.166c-5.018-5.018-5.018-13.159 0-18.178l1.061-1.061c5.018-5.018 13.159-5.019 18.178 0l18.743 18.743c5.018 5.018 5.018 13.159 0 18.178l-1.061 1.061c-5.018 5.018-13.159 5.019-18.178 0z" fill="url(#SVGID_00000114780856644799540490000001009091226817175220_)"/><path d="m405.962 442.247 21.544 21.544c5.845 5.845 15.325 5.845 21.17 0l1.374-1.374c5.845-5.845 5.845-15.325 0-21.17l-21.544-21.544c-5.845-5.845-15.325-5.845-21.17 0l-1.374 1.374c-5.845 5.845-5.845 15.325 0 21.17zm5.375-1.653c-2.14-2.14-3.218-4.958-3.218-7.758s1.079-5.618 3.218-7.758c4.288-4.288 11.228-4.288 15.516 0l17.821 17.821c4.288 4.288 4.288 11.228 0 15.516s-11.228 4.288-15.516 0z" fill="url(#SVGID_00000168807469789150934040000004159552298568079017_)"/></g><g><g><path d="m490.498 52.558c-35.564-35.564-102.77-26.023-150.101 21.309-29.902 29.902-44.714 67.727-42.618 100.491 1.2 18.699-6.193 36.912-20.143 49.419-49.08 43.966-133.872 120.808-203.426 188.449-15.995 15.56-16.143 41.209-.365 56.986 15.647 15.647 40.991 15.629 56.586.035l.4-.4c67.64-69.555 144.482-154.347 188.448-203.427 12.507-13.951 30.72-21.344 49.419-20.143 32.764 2.096 70.589-12.716 100.491-42.618 47.332-47.332 56.873-114.537 21.309-150.101zm-371.627 390.865c-5.018 5.018-13.159 5.018-18.178 0l-1.061-1.061c-5.018-5.018-5.019-13.159 0-18.178l18.743-18.743c5.018-5.018 13.159-5.018 18.178 0l1.061 1.061c5.018 5.018 5.019 13.159 0 18.178z" fill="url(#SVGID_00000106855713717970563560000002591416748863100589_)"/><path d="m460.497 193.973c-40.949 40.949-99.085 49.203-129.851 18.437s-22.512-88.902 18.437-129.851 99.085-49.203 129.851-18.437 22.512 88.902-18.437 129.851z" fill="url(#SVGID_00000062874706957391422060000002357595938142311556_)"/><path d="m228.755 365.076-50.776-50.776c-34.39 31.728-70.798 65.857-103.77 97.925-15.995 15.56-16.143 41.209-.365 56.986 15.647 15.647 40.991 15.629 56.586.035l.4-.4c32.068-32.972 66.197-69.38 97.925-103.77zm-109.884 78.347c-5.018 5.018-13.159 5.018-18.178 0l-1.061-1.061c-5.018-5.018-5.019-13.159 0-18.178l18.743-18.743c5.018-5.018 13.159-5.018 18.178 0l1.061 1.061c5.018 5.018 5.019 13.159 0 18.178z" fill="url(#SVGID_00000065044881486513776380000011464330338840069029_)"/></g><path d="m140.667 403.763-1.374-1.374c-5.845-5.845-15.325-5.845-21.17 0l-21.544 21.544c-5.845 5.845-5.845 15.325 0 21.17l1.374 1.374c5.845 5.845 15.325 5.845 21.17 0l21.544-21.544c5.845-5.845 5.845-15.326 0-21.17zm-23.196 37.338c-4.288 4.288-11.228 4.288-15.516 0s-4.288-11.228 0-15.516l17.821-17.821c4.288-4.288 11.228-4.288 15.516 0 2.14 2.14 3.218 4.958 3.218 7.758s-1.079 5.619-3.218 7.758z" fill="url(#SVGID_00000082365060812984572950000009385724176876328080_)"/></g></g><g/><g/><g/><g/><g/><g/><g/><g/><g/><g/><g/><g/><g/><g/><g/></svg>