<svg clip-rule="evenodd" fill-rule="evenodd" height="512" image-rendering="optimizeQuality" shape-rendering="geometricPrecision" text-rendering="geometricPrecision" viewBox="0 0 1707 1707" width="512" xmlns="http://www.w3.org/2000/svg"><g id="Layer_x0020_1"><g fill="#1a1a1a"><path d="m703 1385c-11 0-20-9-20-20 0-167-135-302-302-302-166 0-302 135-302 302 0 11-8 20-20 20-11 0-20-9-20-20v-1059c0-169 154-306 342-306 189 0 342 137 342 306v1059c0 11-9 20-20 20zm-322-1345c-166 0-302 120-302 266v898c58-108 172-181 302-181 131 0 245 73 302 181v-898c0-146-135-266-302-266z"/><path d="m381 1707c-188 0-342-154-342-342 0-189 154-342 342-342 189 0 342 153 342 342 0 188-153 342-342 342zm0-644c-166 0-302 135-302 302 0 166 136 301 302 301 167 0 302-135 302-301 0-167-135-302-302-302z"/><path d="m381 1604c-132 0-239-107-239-239s107-240 239-240 240 108 240 240-108 239-240 239zm0-439c-110 0-199 90-199 200s89 199 199 199 200-89 200-199-90-200-200-200z"/><path d="m1647 1593h-1021c-7 0-14-4-18-11-3-8-2-16 3-22 47-54 72-124 72-195v-1059c0-22-3-44-9-66-2-6-1-12 3-17s10-8 16-8h954c11 0 20 9 20 20v1338c0 11-9 20-20 20zm-981-40h961v-1298h-909c4 17 5 34 5 51v1059c0 67-20 133-57 188z"/><path d="m1447 1393h-744c-5 0-11-2-14-6-4-4-6-9-6-15 0-2 0-5 0-7v-930c0-11 9-20 20-20h744c11 0 20 9 20 20v938c0 11-9 20-20 20zm-724-40h704v-898h-704z"/><path d="m1219 1393c-11 0-20-9-20-20v-938c0-11 9-20 20-20s20 9 20 20v938c0 11-9 20-20 20z"/><path d="m1219 610c-7 0-13-3-17-8-6-9-4-22 6-28l228-156c9-6 21-3 27 6 7 9 4 21-5 27l-228 156c-3 2-7 3-11 3z"/><path d="m1447 766c-4 0-8-1-11-4l-228-155c-10-6-12-19-6-28 7-9 19-11 28-5l228 155c9 6 12 19 5 28-3 6-10 9-16 9z"/><path d="m1219 921c-7 0-13-3-17-9-6-9-4-21 6-27l228-156c9-6 21-4 27 6 7 9 4 21-5 27l-228 156c-3 2-7 3-11 3z"/><path d="m1447 1077c-4 0-8-1-11-4l-228-155c-10-7-12-19-6-28 7-9 19-12 28-5l228 155c9 6 12 19 5 28-3 6-10 9-16 9z"/><path d="m1219 1232c-7 0-13-3-17-9-6-9-4-21 6-28l228-155c9-6 21-4 27 5 7 9 4 22-5 28l-228 156c-3 2-7 3-11 3z"/><path d="m1447 1393c-4 0-8-1-12-4l-228-161c-9-6-11-18-5-28 7-9 19-11 28-4l228 161c9 6 12 18 5 27-4 6-10 9-16 9z"/><path d="m832 1189h-129c-11 0-20-9-20-20v-530c0-11 9-20 20-20h129c137 0 249 112 249 249v72c0 137-112 249-249 249zm-109-40h109c115 0 209-94 209-209v-72c0-115-94-209-209-209h-109z"/><path d="m208 513c-11 0-20-9-20-20v-428c0-11 9-20 20-20s20 9 20 20v428c0 11-9 20-20 20z"/><path d="m208 712c-11 0-20-9-20-20v-97c0-11 9-20 20-20s20 9 20 20v97c0 11-9 20-20 20z"/></g><path d="m381 1165c-110 0-199 90-199 200s89 199 199 199 200-89 200-199-90-200-200-200z" fill="#f3c913"/><path d="m723 1189v164h476v-451c0-1 0-1 0-1v-310-1-135h-476v164h109c137 0 249 112 249 249v72c0 137-112 249-249 249z" fill="#b26e25"/><path d="m723 1149h109c115 0 209-94 209-209v-72c0-115-94-209-209-209h-109z" fill="#f3c913"/><path d="m1239 1251v102h145z" fill="#b26e25"/><path d="m1254 1212 173 122v-240z" fill="#b26e25"/><path d="m1239 1174 172-117-172-118z" fill="#b26e25"/><path d="m1254 901 173 118v-235z" fill="#b26e25"/><path d="m1239 863 172-117-172-118z" fill="#b26e25"/><path d="m1254 590 173 118v-235z" fill="#b26e25"/><path d="m1239 553 143-98h-143z" fill="#b26e25"/><path d="m683 1169v-530-204-129c0-11-1-22-2-33-2-11-4-22-7-33-34-115-152-200-293-200-56 0-108 14-153 37v416c0 11-9 20-20 20s-20-9-20-20v-391c-66 49-109 122-109 204v898c58-108 172-181 302-181 131 0 245 73 302 181zm-455-477c0 11-9 20-20 20s-20-9-20-20v-97c0-11 9-20 20-20s20 9 20 20z" fill="#c57c2d"/><path d="m142 1365c0-132 107-240 239-240s240 108 240 240-108 239-240 239-239-107-239-239zm-63 0c0 166 136 302 302 302 167 0 302-136 302-302 0-167-135-302-302-302-166 0-302 135-302 302z" fill="#a36624"/><path d="m723 415h724c11 0 20 9 20 20v938c0 11-9 20-20 20h-725c-5 57-24 112-56 160h961v-1298h-909c4 17 5 34 5 51z" fill="#f3c913"/></g></svg>