<svg id="Layer_1" enable-background="new 0 0 2048 2048" viewBox="0 0 2048 2048" xmlns="http://www.w3.org/2000/svg"><g><path d="m1585.951 418.343h-1123.902c-34.343 0-62.441 28.098-62.441 62.431v1248.785c0 34.343 28.098 62.441 62.441 62.441h933.564l252.779-297.29v-1013.936c0-34.333-28.098-62.431-62.441-62.431z" fill="#82d0ff"/><g><path d="m1132.573 795.365-39.804 82.23-68.764 68.738-68.774-68.738-39.794-82.23 108.563-185.713z" fill="#ffe341"/></g><g><path d="m1268.759 380.883-244.759 315.932-244.759-315.932z" fill="#d1c9e4"/></g><g><path d="m1268.759 256-69.337 170.818h-350.844l-69.337-170.818z" fill="#e7e2f0"/></g><g><path d="m1268.759 256 113.022 162.343-114.271 499.51-134.937-122.488-108.573-98.55 175.422-315.932z" fill="#fbf2f2"/></g><g><path d="m848.578 380.883 175.422 315.932-108.563 98.55-134.947 122.488-114.26-499.51 113.011-162.343z" fill="#fbf2f2"/></g><g><path d="m776.258 1717.677h-241.3c-30.873 0-55.99-25.117-55.99-55.99v-489.042c0-13.682 11.092-24.774 24.774-24.774s24.774 11.092 24.774 24.774v489.042c0 3.551 2.89 6.442 6.442 6.442h241.3c13.682 0 24.774 11.092 24.774 24.774 0 13.683-11.091 24.774-24.774 24.774z" fill="#32a7ff"/></g><g><path d="m1395.613 1494.71h252.779v148.645h-252.779z" fill="#e7e2f0"/></g><g><path d="m1648.392 1593.806v135.752c0 34.343-28.098 62.441-62.441 62.441h-190.338v-198.194h252.779z" fill="#32a7ff"/></g><g><path d="m1092.769 877.595 108.088 542.792-176.857 243.221-176.846-243.221 108.077-542.792z" fill="#f4be25"/></g></g></svg>