<svg id="Layer_1" enable-background="new 0 0 512 512" height="512" viewBox="0 0 512 512" width="512" xmlns="http://www.w3.org/2000/svg"><g id="XMLID_1_"><g id="XMLID_3906_"><path id="XMLID_1778_" d="m397 427c0-22.1 17.9-40 40-40v-382h-302c-33.1 0-60 26.9-60 60v362c0 33.1 26.9 60 60 60h302v-20c-22.1 0-40-17.9-40-40z" fill="#399349"/><path id="XMLID_2257_" d="m135 5v482c-33.1 0-60-26.9-60-60v-362c0-33.1 26.9-60 60-60z" fill="#47b85c"/><path id="XMLID_1780_" d="m397 427c0-22.1 17.9-40 40-40v-20h-302c-33.1 0-60 26.9-60 60s26.9 60 60 60h302v-20c-22.1 0-40-17.9-40-40z" fill="#2b6e38"/><path id="XMLID_1783_" d="m397 427c0-22.1 17.9-40 40-40h-302c-22.1 0-40 17.9-40 40s17.9 40 40 40h302c-22.1 0-40-17.9-40-40z" fill="#ffcb5d"/><path id="XMLID_1781_" d="m174.7 507-19.9-20-19.8 20v-80h39.7z" fill="#e86b4d"/><path id="XMLID_1777_" d="m155 25h262v322h-262z" fill="#ffcb5d"/><path id="XMLID_1776_" d="m397 155v62c0 40.5-47.5 50.4-47.5 50.4 0 61-63.5 79.6-63.5 79.6s-63.5-18.6-63.5-79.6c0 0-47.5-10-47.5-50.4v-62c0-40.5 47.5-50.4 47.5-50.4 0-61 63.5-79.6 63.5-79.6s63.5 18.6 63.5 79.6c0 0 47.5 9.9 47.5 50.4z" fill="#399349"/><path id="XMLID_1771_" d="m361 186c0-45.1-31-82-70.2-84.8l15.2-15.2-20-20-20 20 15.2 15.2c-39.2 2.8-70.2 39.7-70.2 84.8s31 82 70.2 84.8l-15.2 15.2 20 20 20-20-15.2-15.2c39.2-2.8 70.2-39.7 70.2-84.8z" fill="#ffcb5d"/><circle id="XMLID_1770_" cx="286" cy="186" fill="#ffb30f" r="40"/><g id="XMLID_1782_"><path id="XMLID_2277_" d="m135 422h221v10h-221z" fill="#ffb30f"/></g></g></g></svg>