<svg viewBox="0 0 512 512" xmlns="http://www.w3.org/2000/svg"><g id="Finance_education" data-name="Finance education"><path d="m306.19 481.37h-168.43a21 21 0 0 1 -21-21 18.58 18.58 0 0 1 18.59-18.58h170.84z" fill="#2351fb"/><path d="m306.19 476h-173.84a15.24 15.24 0 0 1 0-28.82h173.84z" fill="#fdc500"/><path d="m154.86 402.27h168.14a0 0 0 0 1 0 0v39.55a0 0 0 0 1 0 0h-172a17.45 17.45 0 0 1 -17.45-17.45v-.83a21.27 21.27 0 0 1 21.31-21.27z" fill="#68003c"/><path d="m323 436.45h-173.85a15.23 15.23 0 0 1 0-28.81h173.85z" fill="#fdc500"/><path d="m131 362.73h177.82a0 0 0 0 1 0 0v39.55a0 0 0 0 1 0 0h-177.24a12.15 12.15 0 0 1 -12.15-12.15v-15.79a11.61 11.61 0 0 1 11.57-11.61z" fill="#fdc500" transform="matrix(-1 0 0 -1 428.25 765)"/><path d="m119.43 396.91h173.84a15.24 15.24 0 0 0 0-28.82h-173.84z" fill="#e87700"/><path d="m341.85 110.9-41.63 37.64c-3.27 4.57-2.45 10.7 1.38 13.84a10.11 10.11 0 0 0 11.59.53l49.89-39z" fill="#e87700"/><path d="m342 104.74-47.63 26c-4 2.7-5.72 7.38-4.53 11.26 1.54 5 8 8.31 14.15 6l41.34-23z" fill="#e87700"/><path d="m355.23 95.83-54.29 17.86c-3.61 1.58-5.78 5.1-5.41 8.42.47 4.33 5.18 8 10.54 7l45-13.65q2.08-9.81 4.16-19.63z" fill="#e87700"/><path d="m310.76 257.72h80.31a53.81 53.81 0 0 1 53.81 53.81v151.54a18.44 18.44 0 0 1 -18.44 18.44h-149a18.44 18.44 0 0 1 -18.44-18.44v-153.57a51.78 51.78 0 0 1 51.76-51.78z" fill="#2351fb"/><rect fill="#68003c" height="23.64" rx="5.01" width="141.98" x="280.94" y="238.18"/><g fill="#e87700"><path d="m361.89 462.35h63.54v11.97h-63.54z"/><path d="m355.14 450.38h63.54v11.97h-63.54z"/><path d="m361.89 438.41h63.54v11.97h-63.54z"/><path d="m357.38 426.43h63.54v11.97h-63.54z"/><path d="m361.89 414.46h63.54v11.97h-63.54z"/><path d="m355.14 402.48h63.54v11.97h-63.54z"/><path d="m362.98 390.51h63.54v11.97h-63.54z"/><path d="m281.33 462.35h63.54v11.97h-63.54z"/><path d="m274.58 450.38h63.54v11.97h-63.54z"/><path d="m281.33 438.41h63.54v11.97h-63.54z"/><path d="m276.82 426.43h63.54v11.97h-63.54z"/><path d="m281.33 414.46h63.54v11.97h-63.54z"/><path d="m274.58 402.48h63.54v11.97h-63.54z"/><path d="m282.42 390.51h63.54v11.97h-63.54z"/></g><path d="m323.84 463.74h56.19v10.59h-56.19z" fill="#fdc500"/><path d="m317.87 453.15h56.19v10.59h-56.19z" fill="#fdc500"/><path d="m323.84 442.56h56.19v10.59h-56.19z" fill="#fdc500"/><path d="m319.85 431.97h56.19v10.59h-56.19z" fill="#fdc500"/><path d="m323.84 421.38h56.19v10.59h-56.19z" fill="#fdc500"/><path d="m317.87 410.79h56.19v10.59h-56.19z" fill="#fdc500"/><path d="m324.8 400.2h56.19v10.59h-56.19z" fill="#fdc500"/><circle cx="401.28" cy="375.22" fill="#fdc500" r="33.73"/><path d="m404.18 398.51a10 10 0 0 1 -11.37-8.46l-.5-3.42a2.41 2.41 0 0 1 4.76-.7l.5 3.42a5.21 5.21 0 0 0 10.32-1.51l-.62-4.23a5.22 5.22 0 0 0 -5.92-4.4 10 10 0 0 1 -11.35-8.46l-1.06-7.29a10 10 0 0 1 8.46-11.37l1-.15a10 10 0 0 1 11.38 8.46l1 7.09a2.4 2.4 0 1 1 -4.75.7l-1-7.09a5.22 5.22 0 0 0 -5.92-4.4l-1 .14a5.24 5.24 0 0 0 -4.41 5.92l1.07 7.29a5.22 5.22 0 0 0 5.92 4.4 10 10 0 0 1 11.31 8.47l.62 4.22a10 10 0 0 1 -8.44 11.37z" fill="#fff"/><path d="m405.77 405.85a2.4 2.4 0 0 1 -2.72-2l-8.28-56.49a2.4 2.4 0 1 1 4.75-.7l8.28 56.49a2.39 2.39 0 0 1 -2.03 2.7z" fill="#fff"/><path d="m258.1 367.23a781.64 781.64 0 0 1 -140.71 15.77l-4.21-37.5 140.71-15.78z" fill="#68003c"/><path d="m123.65 355.06-71.94-9.65 139.22-67.69 122.58 44.77-68.59 19z" fill="#68003c"/><path d="m113.76 351.13a.5.5 0 0 1 -.21-.95 226.71 226.71 0 0 1 141.1-15.11.5.5 0 1 1 -.21 1c-80.01-17.19-138.97 15.06-140.68 15.06z" fill="#fff"/><path d="m110 317.07c-11.46-1.2-16.71 2-19.29 4.43-7.87 7.5-6.55 23.35-4.49 47.91.48 5.81 1.3 13-1.14 22.2a52.87 52.87 0 0 1 -6.18 14.26l3.61 3.48a54.8 54.8 0 0 0 6.49-14.89 56.09 56.09 0 0 0 1.75-16.71c-.9-35.26-3.28-46.81 3.88-53.37a16.09 16.09 0 0 1 8-3.82z" fill="#fdc500"/><path d="m80.78 402.55 4.41 2-3.19 23.37a15.51 15.51 0 0 1 -17-13z" fill="#e87700"/><path d="m400.13 36.43q-6.79 19.37-13.58 38.74l-29.66 16.56a17.68 17.68 0 0 0 -8.21 10q-10.68 33.46-21.32 66.86c.88 6.87 6.46 11.55 11.95 11.23 3.83-.23 7.32-2.88 9.21-6.67l17.48-36.1a17.73 17.73 0 0 1 18.88-5.4c8.57 2.89 11 11.57 11.21 12.25l-11.21 32.16a12.45 12.45 0 0 0 4.71 11.9c4.53 3.3 11.22 2.88 15.82-1.3a444.57 444.57 0 0 0 33.33-59.66 10 10 0 0 0 .93-4.25q.39-15.67.77-31.34l18.47-23.32a6.36 6.36 0 0 0 .56-7.08 57.79 57.79 0 0 0 -52.64-29.46 7.3 7.3 0 0 0 -6.7 4.88z" fill="#e87700"/><circle cx="361.66" cy="191.01" fill="#fdc500" r="33.53"/><path d="m364.54 214.16a10 10 0 0 1 -11.31-8.41l-.49-3.4a2.39 2.39 0 1 1 4.73-.69l.49 3.4a5.19 5.19 0 0 0 10.27-1.51l-.62-4.2a5.19 5.19 0 0 0 -5.88-4.38 10 10 0 0 1 -11.31-8.41l-1.06-7.25a10 10 0 0 1 8.41-11.3l1-.15a10 10 0 0 1 11.31 8.42l1 7a2.39 2.39 0 0 1 -4.73.7l-1-7.05a5.19 5.19 0 0 0 -5.88-4.38l-1 .15a5.18 5.18 0 0 0 -4.38 5.88l1.06 7.25a5.2 5.2 0 0 0 5.88 4.38 10 10 0 0 1 11.31 8.41l.61 4.2a10 10 0 0 1 -8.41 11.34z" fill="#fff"/><path d="m366.12 221.46a2.39 2.39 0 0 1 -2.71-2l-8.23-56.16a2.39 2.39 0 0 1 4.73-.7l8.23 56.17a2.39 2.39 0 0 1 -2.02 2.69z" fill="#fff"/><path d="m336.07 144.19a.5.5 0 0 1 -.48-.65l14.81-46.43a.5.5 0 1 1 1 .3l-14.8 46.43a.51.51 0 0 1 -.53.35z" fill="#68003c"/><path d="m300.22 149a.51.51 0 0 1 -.32-.89l46.78-39.11a.51.51 0 0 1 .71.07.5.5 0 0 1 -.07.7c-50.11 41.94-46.81 39.23-47.1 39.23z" fill="#68003c"/><path d="m299.53 128.45a.5.5 0 0 1 -.23-.94l49.15-26.17a.49.49 0 0 1 .67.21.49.49 0 0 1 -.2.67c-52.84 28.14-49.2 26.23-49.39 26.23z" fill="#68003c"/></g></svg>