<svg id="_01-Backpack" height="512" viewBox="0 0 64 64" width="512" xmlns="http://www.w3.org/2000/svg" data-name="01-Backpack"><path d="m20 47h3v4h-3z" fill="#446aa9"/><path d="m35.63 4.36a3.959 3.959 0 0 1 2.37 3.64v3.04c-.37-.03-.74-.04-1.11-.04h-1.89v-3a1 1 0 0 0 -1-1h-4a1 1 0 0 0 -1 1v3h-1.89c-.37 0-.74.01-1.11.04v-3.04a3.959 3.959 0 0 1 2.37-3.64 3.738 3.738 0 0 1 1.63-.36h4a3.738 3.738 0 0 1 1.63.36z" fill="#dd933c"/><path d="m18 1 1.32 11.91a15.941 15.941 0 0 0 -3.21 2.21l-.11-.12v-13a1 1 0 0 1 1-1z" fill="#365587"/><path d="m48 2v13l-.11.12a15.941 15.941 0 0 0 -3.21-2.21l1.32-11.91h1a1 1 0 0 1 1 1z" fill="#365587"/><path d="m28.1 1.89.27 2.47a3.959 3.959 0 0 0 -2.37 3.64v3.04a16.387 16.387 0 0 0 -6.68 1.87l-1.32-11.91h9.1a1.006 1.006 0 0 1 1 .89z" fill="#446aa9"/><path d="m46 1-1.32 11.91a16.387 16.387 0 0 0 -6.68-1.87v-3.04a3.959 3.959 0 0 0 -2.37-3.64l.27-2.47a1.006 1.006 0 0 1 1-.89z" fill="#446aa9"/><path d="m30 17h4v6h-4z" fill="#dd933c"/><path d="m20 47v4h3v-4h24v10a2.006 2.006 0 0 1 -2 2h-26a2.006 2.006 0 0 1 -2-2v-10z" fill="#c56532"/><path d="m47 43v4h-30v-4a2.006 2.006 0 0 1 2-2h26a2.006 2.006 0 0 1 2 2z" fill="#f2a142"/><path d="m26 11.04c.37-.03.74-.04 1.11-.04h9.78c.37 0 .74.01 1.11.04a16.387 16.387 0 0 1 6.68 1.87 15.941 15.941 0 0 1 3.21 2.21 19 19 0 0 1 6.11 13.88v12h-3v-12a12 12 0 0 0 -12-12h-14a12 12 0 0 0 -12 12v12h-3v-12a19 19 0 0 1 6.11-13.88 15.941 15.941 0 0 1 3.21-2.21 16.387 16.387 0 0 1 6.68-1.87z" fill="#f2a142"/><path d="m51 47v16h-38v-34a12 12 0 0 1 12-12h5v6h4v-6h5a12 12 0 0 1 12 12zm-4 10v-14a2.006 2.006 0 0 0 -2-2h-26a2.006 2.006 0 0 0 -2 2v14a2.006 2.006 0 0 0 2 2h26a2.006 2.006 0 0 0 2-2z" fill="#446aa9"/><path d="m51 47v16h1a4 4 0 0 0 4-4v-12z" fill="#dd933c"/><path d="m51 41h5v6h-5z" fill="#446aa9"/><path d="m8 59a4 4 0 0 0 4 4h1v-16h-5z" fill="#dd933c"/><path d="m8 41h5v6h-5z" fill="#446aa9"/><path d="m54.544 59h-.088a1.456 1.456 0 0 1 -1.456-1.456v-10.544h-2v16h1a4 4 0 0 0 4-4v-1.456a1.456 1.456 0 0 1 -1.456 1.456z" fill="#bd731c"/><path d="m51 41v6h5v-2h-1a2 2 0 0 1 -2-2v-2z" fill="#234275"/><path d="m9.456 59h.088a1.456 1.456 0 0 0 1.456-1.456v-10.544h2v16h-1a4 4 0 0 1 -4-4v-1.456a1.456 1.456 0 0 0 1.456 1.456z" fill="#bd731c"/><path d="m13 41v6h-5v-2h1a2 2 0 0 0 2-2v-2z" fill="#234275"/><path d="m50.975 18.784a5.689 5.689 0 0 1 -1.876 3.75 11.93 11.93 0 0 1 1.901 6.466v12h3v-12a20.146 20.146 0 0 0 -3.025-10.216z" fill="#dd933c"/><path d="m13.025 18.784a20.146 20.146 0 0 0 -3.025 10.216v12h3v-12a11.93 11.93 0 0 1 1.9-6.466 5.689 5.689 0 0 1 -1.875-3.75z" fill="#dd933c"/><path d="m52 37v-8a13 13 0 0 0 -13-13h-14a13 13 0 0 0 -13 13v8a2 2 0 0 1 -2 2v2h3v-12a12 12 0 0 1 12-12h14a12 12 0 0 1 12 12v12h3v-2a2 2 0 0 1 -2-2z" fill="#b0582a"/><path d="m37 9a1 1 0 0 1 -1-1 2 2 0 0 0 -2-2h-4a2 2 0 0 0 -2 2 1 1 0 0 1 -1 1h-1v2.04c.37-.03.74-.04 1.11-.04h1.89v-3a1 1 0 0 1 1-1h4a1 1 0 0 1 1 1v3h1.89c.37 0 .74.01 1.11.04v-2.04z" fill="#b0582a"/><path d="m18 1h-1a1 1 0 0 0 -1 1v2h.087a1 1 0 0 1 1 .909l.805 8.862a16.162 16.162 0 0 1 1.432-.861l-.282-2.51z" fill="#234275"/><path d="m47 1h-1l-1.042 9.4-.278 2.51a16.162 16.162 0 0 1 1.432.861l.8-8.862a1 1 0 0 1 1-.909h.088v-2a1 1 0 0 0 -1-1z" fill="#234275"/><path d="m24 8v1a11.418 11.418 0 0 0 -4.958 1.4l.278 2.508a16.387 16.387 0 0 1 6.68-1.868v-3.04a3.959 3.959 0 0 1 2.37-3.64l-.039-.36h-.331a4 4 0 0 0 -4 4z" fill="#365587"/><path d="m40 9v-1a4 4 0 0 0 -4-4h-.331l-.039.36a3.959 3.959 0 0 1 2.37 3.64v3.04a16.387 16.387 0 0 1 6.68 1.87l.278-2.508a11.418 11.418 0 0 0 -4.958-1.402z" fill="#365587"/><path d="m30 17v6h4v-6h-1v4a1 1 0 0 1 -1 1 1 1 0 0 1 -1-1v-4z" fill="#b0582a"/><path d="m45 59h-26a2.006 2.006 0 0 1 -2-2v2a2 2 0 0 0 2 2h26a2 2 0 0 0 2-2v-2a2.006 2.006 0 0 1 -2 2z" fill="#192f54"/><g fill="#365587"><path d="m45 41a2.006 2.006 0 0 1 2 2v16a2 2 0 0 1 -2 2h-26a2 2 0 0 1 -2-2v-16a2.006 2.006 0 0 1 2-2 6 6 0 0 1 -6-6v28h38v-28a6 6 0 0 1 -6 6z"/><path d="m34 23v1h-5v-7h1v6z"/><path d="m25 19h5v-2h-5a12 12 0 0 0 -12 12v6a5.976 5.976 0 0 0 2 4.463v-10.463a10 10 0 0 1 10-10z"/><path d="m39 17h-5v2h5a10 10 0 0 1 10 10v10.463a5.976 5.976 0 0 0 2-4.463v-6a12 12 0 0 0 -12-12z"/></g><path d="m45 41h-1a1 1 0 0 1 1 1v1a2 2 0 0 1 -2 2h-22a2 2 0 0 1 -2-2v-1a1 1 0 0 1 1-1h-1a2.006 2.006 0 0 0 -2 2v4h30v-4a2.006 2.006 0 0 0 -2-2z" fill="#bd731c"/><path d="m44 57h-24a3 3 0 0 1 -3-3v3a2.006 2.006 0 0 0 2 2h26a2.006 2.006 0 0 0 2-2v-3a3 3 0 0 1 -3 3z" fill="#b0582a"/><path d="m23 47h24v1h-24z" fill="#994d25"/><path d="m23 51v1h-4v-4h-2v-1h3v4z" fill="#994d25"/><path d="m20 47v4h3v-4h-1v3h-1v-3z" fill="#234275"/><rect fill="#ffbe4f" height="3" rx="1.5" width="12" x="26" y="12"/></svg>